<?xml version="1.0" encoding="utf-8"?>
<!-- Generator: Adobe Illustrator 28.0.0, SVG Export Plug-In . SVG Version: 6.00 Build 0)  -->
<svg version="1.1" id="Layer_1" xmlns="http://www.w3.org/2000/svg" xmlns:xlink="http://www.w3.org/1999/xlink" x="0px" y="0px"
	 viewBox="0 0 1920 1080" style="enable-background:new 0 0 1920 1080;" xml:space="preserve">
<style type="text/css">
	.st0{font-family:'IBMPlexMono';}
	.st1{font-size:12px;}
	.st2{font-family:'HelveticaNeue-Medium';}
	.st3{font-size:29px;}
	.st4{font-size:10px;}
	.st5{fill:#9DCFE4;}
	.st6{fill:#003449;}
	.st7{clip-path:url(#SVGID_00000152227792137447468080000005619732160249032121_);}
	.st8{clip-path:url(#SVGID_00000091008265007965501070000017167580813757416608_);}
	.st9{clip-path:url(#SVGID_00000148627166131016290750000011006346002422480803_);}
	.st10{clip-path:url(#SVGID_00000165224743205149175540000011851921884390205859_);}
	.st11{clip-path:url(#SVGID_00000099642101062403006860000009746160281773322379_);}
	.st12{clip-path:url(#SVGID_00000132085102352367317680000012758075916289927824_);}
	.st13{clip-path:url(#SVGID_00000107546140568207670260000005489313374821858473_);}
	.st14{clip-path:url(#SVGID_00000122700264156221729830000007235949855160634021_);}
	.st15{clip-path:url(#SVGID_00000085945004419566449630000017098888586545022596_);}
	.st16{clip-path:url(#SVGID_00000093884208804826372100000004142879945795643540_);}
	.st17{clip-path:url(#SVGID_00000058571544649624923670000014602688579139499164_);}
	.st18{clip-path:url(#SVGID_00000042737416848843440680000010627003138431962803_);}
	.st19{clip-path:url(#SVGID_00000062893569934352379640000011994395562238770304_);}
	.st20{clip-path:url(#SVGID_00000019662793791567770940000013236434228609495712_);}
</style>
<path d="M167.5,50.9h-99c-2.4,0-4.3-1.9-4.3-4.3s1.9-4.3,4.3-4.3h45.3V38c0-2.4,1.9-4.3,4.3-4.3c2.4,0,4.3,1.9,4.3,4.3v4.3h45.1
	c2.4,0,4.3,1.9,4.3,4.3C171.8,49,169.9,50.9,167.5,50.9 M167.5,119.8h-99V55.2h99V119.8 M81.4,85.5c0,9.5,7.7,17.2,17.2,17.2
	c9.5,0,17.2-7.7,17.2-17.2H98.6V68.2C89.1,68.2,81.4,75.9,81.4,85.5 M128.8,68.1h-4.3v4.3h4.3V68.1 M128.8,76.7h-4.3V81h4.3V76.7
	 M128.8,85.3h-4.3v4.3h4.3V85.3 M128.8,93.9h-4.3v4.3h4.3V93.9 M128.8,102.6h-4.3v4.3h4.3V102.6 M154.6,68.1h-21.5v4.3h21.5V68.1
	 M154.6,76.7h-21.5V81h21.5V76.7 M154.6,85.3h-21.5v4.3h21.5V85.3 M154.6,93.9h-21.5v4.3h21.5V93.9 M154.6,102.6h-21.5v4.3h21.5
	V102.6 M106.3,141.3h9.7v-21.5h4.3v21.5h9.5l-9.5-21.5h8.6l17.2,38.7h-8.6l-5.7-12.9h-11.4v21.5H116v-21.5h-11.6l-5.8,12.9H90
	l17.4-38.7h8.6L106.3,141.3"/>
<path d="M213,96.6v3h0.6v-3H213 M214.5,96.6v3h0.6v-3H214.5 M216,96.6v3h0.6v-3H216 M217.5,96.6v3h0.6v-3H217.5 M219.1,96.6v3h0.6
	v-3H219.1 M220.6,96.6v3h0.6v-3H220.6 M222.1,96.6v3h0.6v-3H222.1 M223.6,96.6v3h0.6v-3H223.6 M225.1,96.6v3h0.6v-3H225.1
	 M226.6,96.6v3h0.6v-3H226.6 M228.1,96.6v3h0.6v-3H228.1 M229.6,96.6v3h0.6v-3H229.6 M231.1,96.6v3h0.6v-3H231.1 M232.6,96.6v3h0.6
	v-3H232.6 M234.1,96.6v3h0.6v-3H234.1 M235.6,96.6v3h0.6v-3H235.6 M237.2,96.6v3h0.6v-3H237.2 M238.7,96.6v3h0.6v-3H238.7
	 M240.2,96.6v3h0.6v-3H240.2 M241.7,96.6v3h0.6v-3H241.7 M243.2,96.6v3h0.6v-3H243.2 M244.7,96.6v3h0.6v-3H244.7 M246.2,96.6v3h0.6
	v-3H246.2 M247.7,96.6v3h0.6v-3H247.7 M249.2,96.6v3h0.6v-3H249.2 M250.7,96.6v3h0.6v-3H250.7 M252.2,96.6v3h0.6v-3H252.2
	 M253.7,96.6v3h0.6v-3H253.7 M255.3,96.6v3h0.6v-3H255.3 M256.8,96.6v3h0.6v-3H256.8 M258.3,96.6v3h0.6v-3H258.3 M259.8,96.6v3h0.6
	v-3H259.8 M261.3,96.6v3h0.6v-3H261.3 M262.8,96.6v3h0.6v-3H262.8 M264.3,96.6v3h0.6v-3H264.3 M265.8,96.6v3h0.6v-3H265.8
	 M267.3,96.6v3h0.6v-3H267.3 M268.8,96.6v3h0.6v-3H268.8 M270.3,96.6v3h0.6v-3H270.3 M271.8,96.6v3h0.6v-3H271.8 M273.4,96.6v3h0.6
	v-3H273.4 M274.9,96.6v3h0.6v-3H274.9 M276.4,96.6v3h0.6v-3H276.4 M277.9,96.6v3h0.6v-3H277.9 M279.4,96.6v3h0.6v-3H279.4
	 M280.9,96.6v3h0.6v-3H280.9 M282.4,96.6v3h0.6v-3H282.4 M283.9,96.6v3h0.6v-3H283.9 M285.4,96.6v3h0.6v-3H285.4 M286.9,96.6v3h0.6
	v-3H286.9 M288.4,96.6v3h0.6v-3H288.4 M289.9,96.6v3h0.6v-3H289.9 M291.5,96.6v3h0.6v-3H291.5 M293,96.6v3h0.6v-3H293 M294.5,96.6v3
	h0.6v-3H294.5 M296,96.6v3h0.6v-3H296 M297.5,96.6v3h0.6v-3H297.5 M299,96.6v3h0.6v-3H299 M300.5,96.6v3h0.6v-3H300.5 M302,96.6v3
	h0.6v-3H302 M303.5,96.6v3h0.6v-3H303.5 M305,96.6v3h0.6v-3H305 M306.5,96.6v3h0.6v-3H306.5 M308,96.6v3h0.6v-3H308 M309.6,96.6v3
	h0.6v-3H309.6 M311.1,96.6v3h0.6v-3H311.1 M312.6,96.6v3h0.6v-3H312.6 M314.1,96.6v3h0.6v-3H314.1 M315.6,96.6v3h0.6v-3H315.6
	 M317.1,96.6v3h0.6v-3H317.1 M318.6,96.6v3h0.6v-3H318.6"/>
<polyline points="327.6,98.1 313.7,93 313.7,103.2 327.6,98.1 "/>
<text transform="matrix(1 0 0 1 225.8281 86.4092)" class="st0 st1">/dev/video0</text>
<text transform="matrix(1 0 0 1 356.9609 107.8701)" class="st2 st3">pr</text>
<text transform="matrix(1 0 0 1 384.3672 107.8701)" class="st2 st3">esent0</text>
<polyline points="346.7,78.6 345.7,78.6 345.7,119.4 485.4,119.4 485.4,77.6 345.7,77.6 345.7,78.6 346.7,78.6 346.7,79.6 
	483.4,79.6 483.4,117.4 347.7,117.4 347.7,78.6 346.7,78.6 346.7,79.6 346.7,78.6 "/>
<path d="M214.8,265.4v3h0.6v-3H214.8 M216.3,265.4v3h0.6v-3H216.3 M217.9,265.4v3h0.6v-3H217.9 M219.4,265.4v3h0.6v-3H219.4
	 M220.9,265.4v3h0.6v-3H220.9 M222.4,265.4v3h0.6v-3H222.4 M223.9,265.4v3h0.6v-3H223.9 M225.4,265.4v3h0.6v-3H225.4 M226.9,265.4v3
	h0.6v-3H226.9 M228.4,265.4v3h0.6v-3H228.4 M229.9,265.4v3h0.6v-3H229.9 M231.4,265.4v3h0.6v-3H231.4 M232.9,265.4v3h0.6v-3H232.9
	 M234.4,265.4v3h0.6v-3H234.4 M236,265.4v3h0.6v-3H236 M237.5,265.4v3h0.6v-3H237.5 M239,265.4v3h0.6v-3H239 M240.5,265.4v3h0.6v-3
	H240.5 M242,265.4v3h0.6v-3H242 M243.5,265.4v3h0.6v-3H243.5 M245,265.4v3h0.6v-3H245 M246.5,265.4v3h0.6v-3H246.5 M248,265.4v3h0.6
	v-3H248 M249.5,265.4v3h0.6v-3H249.5 M251,265.4v3h0.6v-3H251 M252.5,265.4v3h0.6v-3H252.5 M254.1,265.4v3h0.6v-3H254.1
	 M255.6,265.4v3h0.6v-3H255.6 M257.1,265.4v3h0.6v-3H257.1 M258.6,265.4v3h0.6v-3H258.6 M260.1,265.4v3h0.6v-3H260.1 M261.6,265.4v3
	h0.6v-3H261.6 M263.1,265.4v3h0.6v-3H263.1 M264.6,265.4v3h0.6v-3H264.6 M266.1,265.4v3h0.6v-3H266.1 M267.6,265.4v3h0.6v-3H267.6
	 M269.1,265.4v3h0.6v-3H269.1 M270.6,265.4v3h0.6v-3H270.6 M272.2,265.4v3h0.6v-3H272.2 M273.7,265.4v3h0.6v-3H273.7 M275.2,265.4v3
	h0.6v-3H275.2 M276.7,265.4v3h0.6v-3H276.7 M278.2,265.4v3h0.6v-3H278.2 M279.7,265.4v3h0.6v-3H279.7 M281.2,265.4v3h0.6v-3H281.2
	 M282.7,265.4v3h0.6v-3H282.7 M284.2,265.4v3h0.6v-3H284.2 M285.7,265.4v3h0.6v-3H285.7 M287.2,265.4v3h0.6v-3H287.2 M288.7,265.4v3
	h0.6v-3H288.7 M290.3,265.4v3h0.6v-3H290.3 M291.8,265.4v3h0.6v-3H291.8 M293.3,265.4v3h0.6v-3H293.3 M294.8,265.4v3h0.6v-3H294.8
	 M296.3,265.4v3h0.6v-3H296.3 M297.8,265.4v3h0.6v-3H297.8 M299.3,265.4v3h0.6v-3H299.3 M300.8,265.4v3h0.6v-3H300.8 M302.3,265.4v3
	h0.6v-3H302.3 M303.8,265.4v3h0.6v-3H303.8 M305.3,265.4v3h0.6v-3H305.3 M306.8,265.4v3h0.6v-3H306.8 M308.4,265.4v3h0.6v-3H308.4
	 M309.9,265.4v3h0.6v-3H309.9 M311.4,265.4v3h0.6v-3H311.4 M312.9,265.4v3h0.6v-3H312.9 M314.4,265.4v3h0.6v-3H314.4 M315.9,265.4v3
	h0.6v-3H315.9 M317.4,265.4v3h0.6v-3H317.4 M318.9,265.4v3h0.6v-3H318.9 M320.4,265.4v3h0.6v-3H320.4"/>
<polyline points="329.4,266.9 315.5,261.8 315.5,272 329.4,266.9 "/>
<text transform="matrix(1 0 0 1 227.6406 255.2061)" class="st0 st1">/dev/video1</text>
<text transform="matrix(1 0 0 1 359.3047 276.6748)" class="st2 st3">camera0</text>
<polyline points="348.5,247.4 347.5,247.4 347.5,288.2 487.2,288.2 487.2,246.4 347.5,246.4 347.5,247.4 348.5,247.4 348.5,248.4 
	485.2,248.4 485.2,286.2 349.5,286.2 349.5,247.4 348.5,247.4 348.5,248.4 348.5,247.4 "/>
<path d="M74,314.3h94.1c8.7,0,13.5-4.8,13.5-13.5v-55.4c0-8.6-4.7-13.5-13.5-13.5h-15.5c-4.4,0-5.4-0.1-8.3-3.3l-4.7-5.2
	c-2.9-3.1-4.8-3.9-9.7-3.9h-19.5c-4.9,0-6.8,0.7-9.7,3.9l-4.7,5.2c-2.8,3.1-4,3.3-8.3,3.3H74c-8.8,0-13.5,4.8-13.5,13.5v55.4
	C60.5,309.5,65.2,314.3,74,314.3 M74.1,311.7c-7,0-11-3.8-11-11v-55.1c0-7.3,4-11.1,11-11.1h13.7c4.8,0,6.9-0.4,9.7-3.6l4.7-5.2
	c2.9-3.3,4.5-3.6,8.2-3.6H130c3.7,0,5.3,0.3,8.2,3.6l4.7,5.2c2.9,3.2,5,3.6,9.8,3.6h15.2c7,0,11.1,3.8,11.1,11.1v55.1
	c0,7.2-4,11-11.1,11H74.1 M121,300.2c16.1,0,29.1-13,29.1-29.2c0-16.2-12.9-29.2-29.1-29.2c-16.1,0-29.2,13-29.2,29.2
	C91.9,287.2,104.9,300.2,121,300.2 M121,297.4c-14.6,0-26.3-11.8-26.3-26.5c0-14.7,11.8-26.5,26.3-26.5c14.6,0,26.3,11.8,26.3,26.5
	C147.3,285.6,135.6,297.4,121,297.4 M158.7,256.8c2.7,0,4.8-2.1,4.8-4.8c0-2.7-2.1-4.8-4.8-4.8c-2.6,0-4.8,2.1-4.8,4.8
	C153.9,254.7,156,256.8,158.7,256.8"/>
<path d="M74,314.3V313h94.1c2.1,0,3.9-0.3,5.4-0.8c2.3-0.8,3.9-2.1,5.1-4c1.1-1.9,1.8-4.3,1.8-7.4v-55.4c0-2.1-0.3-3.8-0.8-5.4
	c-0.8-2.3-2.1-3.9-4-5.1c-1.9-1.2-4.3-1.8-7.5-1.8h-15.5c-1.1,0-2,0-2.8-0.1c-1.2-0.1-2.3-0.3-3.3-0.9c-1-0.6-1.9-1.5-3-2.7l0,0
	l-4.7-5.2l0,0c-1.4-1.5-2.4-2.3-3.6-2.8c-1.2-0.5-2.8-0.7-5.1-0.7h-19.5c-2.4,0-3.9,0.2-5.1,0.7c-1.2,0.5-2.3,1.3-3.7,2.8l-0.9-0.8
	l0.9,0.8l-4.7,5.2l0,0c-0.7,0.8-1.4,1.4-2,2c-1,0.8-2,1.3-3.2,1.5c-1.2,0.2-2.4,0.3-4.1,0.3H74c-2.1,0-3.9,0.3-5.4,0.8
	c-2.3,0.8-3.9,2.1-5.1,4c-1.1,1.9-1.8,4.3-1.8,7.4v55.4c0,2.1,0.3,3.9,0.8,5.4c0.8,2.3,2.1,3.9,4,5.1c1.9,1.1,4.3,1.8,7.5,1.8V314.3
	v1.2c-2.3,0-4.4-0.3-6.2-0.9c-2.7-0.9-4.9-2.7-6.3-5c-1.4-2.4-2.1-5.3-2.1-8.7v-55.4c0-2.3,0.3-4.3,0.9-6.1c0.9-2.7,2.6-4.9,5-6.4
	c2.3-1.5,5.3-2.2,8.8-2.2h13.8c1.1,0,1.9,0,2.6-0.1c1.1-0.1,1.7-0.3,2.4-0.7c0.7-0.4,1.4-1,2.4-2.2l0,0l4.7-5.2l0,0
	c1.5-1.6,2.9-2.8,4.5-3.4c1.7-0.7,3.6-0.8,6-0.8h19.5c2.5,0,4.4,0.2,6,0.8c1.7,0.7,3.1,1.8,4.5,3.4l0,0l4.7,5.2v0
	c0.7,0.8,1.3,1.3,1.8,1.7c0.7,0.6,1.3,0.8,2.1,1c0.8,0.2,1.9,0.2,3.6,0.2h15.5c2.3,0,4.4,0.3,6.2,1c2.7,1,4.9,2.7,6.4,5
	c1.4,2.4,2.1,5.3,2.1,8.7v55.4c0,2.3-0.3,4.3-0.9,6.2c-0.9,2.7-2.6,4.9-5,6.4c-2.4,1.4-5.3,2.1-8.7,2.1H74V314.3 M74.1,311.7v1.2
	c-1.9,0-3.5-0.2-5.1-0.8c-2.3-0.8-4.1-2.2-5.3-4.1c-1.2-2-1.8-4.4-1.8-7.3v-55.1c0-1.9,0.3-3.7,0.8-5.2c0.8-2.3,2.3-4.1,4.2-5.3
	c2-1.2,4.4-1.8,7.2-1.8h13.7c2.4,0,4-0.1,5.2-0.5c0.6-0.2,1.2-0.5,1.8-0.9c0.6-0.4,1.2-1,1.9-1.7l4.7-5.2l0,0
	c0.8-0.9,1.4-1.5,2.1-2.1c1-0.8,2.1-1.4,3.2-1.6c1.1-0.3,2.3-0.3,3.7-0.3H130c1.9,0,3.4,0.1,4.9,0.7c0.7,0.3,1.4,0.7,2.1,1.3
	c0.7,0.6,1.4,1.2,2.2,2.1l4.7,5.2l0,0c0.7,0.8,1.3,1.3,1.9,1.7c0.9,0.6,1.7,1,2.8,1.2c1.1,0.2,2.4,0.3,4.2,0.3h15.2
	c1.9,0,3.6,0.2,5.1,0.8c2.3,0.8,4.1,2.2,5.4,4.2c1.2,2,1.8,4.4,1.8,7.3v55.1c0,1.9-0.3,3.7-0.8,5.2c-0.8,2.3-2.3,4.1-4.3,5.3
	c-2,1.2-4.4,1.7-7.2,1.7H74.1V311.7v-1.2h93.8c1.6,0,3.1-0.2,4.3-0.6c1.8-0.6,3.1-1.7,4.1-3.1c0.9-1.5,1.5-3.5,1.5-6v-55.1
	c0-1.7-0.2-3.2-0.7-4.4c-0.7-1.8-1.7-3.1-3.2-4c-1.5-0.9-3.5-1.4-6-1.4h-15.2c-2.4,0-4.3-0.1-6-0.6c-0.9-0.3-1.7-0.7-2.4-1.2
	c-0.8-0.5-1.5-1.2-2.3-2.1l0,0l-4.7-5.2l0,0c-0.7-0.8-1.3-1.4-1.9-1.8c-0.8-0.6-1.5-1-2.3-1.1c-0.8-0.2-1.8-0.2-3.2-0.2h-19.6
	c-0.9,0-1.7,0-2.3,0.1c-1,0.1-1.6,0.3-2.4,0.8c-0.7,0.4-1.6,1.2-2.6,2.4l0,0l-4.7,5.2l0,0c-0.8,0.8-1.5,1.5-2.3,2.1
	c-1.1,0.8-2.4,1.3-3.7,1.6c-1.4,0.3-2.8,0.3-4.7,0.3H74.1c-1.6,0-3.1,0.2-4.3,0.6c-1.8,0.6-3.1,1.7-4.1,3.1
	c-0.9,1.5-1.5,3.5-1.5,6.1v55.1c0,1.7,0.2,3.1,0.7,4.4c0.7,1.8,1.7,3.1,3.2,4c1.5,0.9,3.5,1.4,5.9,1.4V311.7 M121,300.2V299
	c15.4,0,27.9-12.4,27.9-28c0-15.6-12.3-28-27.9-28c-15.5,0-28,12.4-28,28c0,15.6,12.5,28,28,28V300.2v1.2c-8.4,0-16-3.4-21.5-8.9
	c-5.5-5.5-8.9-13.1-8.9-21.6c0-8.4,3.4-16.1,8.9-21.6c5.5-5.5,13.1-8.9,21.5-8.9c8.4,0,16,3.4,21.5,8.9c5.5,5.5,8.8,13.1,8.8,21.6
	c0,8.4-3.4,16.1-8.9,21.6c-5.5,5.5-13.1,8.9-21.5,8.9V300.2 M121,297.4v1.2c-7.6,0-14.5-3.1-19.5-8.1c-5-5-8.1-11.9-8.1-19.6
	c0-7.7,3.1-14.6,8.1-19.6c5-5,11.9-8.1,19.5-8.1c7.6,0,14.5,3.1,19.5,8.1c5,5,8,11.9,8,19.6c0,7.6-3.1,14.6-8,19.6
	c-5,5-11.9,8.1-19.5,8.1V297.4v-1.2c6.9,0,13.2-2.8,17.7-7.4c4.5-4.6,7.3-10.9,7.3-17.8c0-14-11.2-25.2-25.1-25.2
	c-13.9,0-25.1,11.2-25.1,25.2c0,7,2.8,13.3,7.4,17.8c4.6,4.6,10.8,7.4,17.8,7.4V297.4 M158.7,256.8v-1.2c1,0,1.9-0.4,2.6-1
	c0.7-0.6,1-1.5,1-2.5c0-2-1.6-3.6-3.6-3.6c-1,0-1.9,0.4-2.5,1c-0.6,0.7-1,1.5-1,2.6c0,1,0.4,1.9,1,2.5c0.6,0.6,1.5,1,2.5,1V256.8
	v1.2c-3.3,0-6-2.7-6-6c0-3.3,2.7-6,6-6c1.7,0,3.2,0.7,4.3,1.8c1.1,1.1,1.8,2.6,1.8,4.3c0,3.3-2.7,6-6,6V256.8"/>
<path d="M500.8,99.7l-2.1,2.1l0.4,0.4l2.1-2.1L500.8,99.7 M501.8,100.8l-2.1,2.1l0.4,0.4l2.1-2.1L501.8,100.8 M502.9,101.8l-2.1,2.1
	l0.4,0.4l2.1-2.1L502.9,101.8 M504,102.9l-2.1,2.1l0.4,0.4l2.1-2.1L504,102.9 M505,104l-2.1,2.1l0.4,0.4l2.1-2.1L505,104 M506.1,105
	l-2.1,2.1l0.4,0.4l2.1-2.1L506.1,105 M507.2,106.1l-2.1,2.1l0.4,0.4l2.1-2.1L507.2,106.1 M508.2,107.2l-2.1,2.1l0.4,0.4l2.1-2.1
	L508.2,107.2 M509.3,108.2l-2.1,2.1l0.4,0.4l2.1-2.1L509.3,108.2 M510.4,109.3l-2.1,2.1l0.4,0.4l2.1-2.1L510.4,109.3 M511.4,110.3
	l-2.1,2.1l0.4,0.4l2.1-2.1L511.4,110.3 M512.5,111.4l-2.1,2.1l0.4,0.4l2.1-2.1L512.5,111.4 M513.5,112.5l-2.1,2.1l0.4,0.4l2.1-2.1
	L513.5,112.5 M514.6,113.5l-2.1,2.1l0.4,0.4l2.1-2.1L514.6,113.5 M515.7,114.6l-2.1,2.1l0.4,0.4l2.1-2.1L515.7,114.6 M516.7,115.7
	l-2.1,2.1l0.4,0.4l2.1-2.1L516.7,115.7 M517.8,116.7l-2.1,2.1l0.4,0.4l2.1-2.1L517.8,116.7 M518.9,117.8l-2.1,2.1l0.4,0.4l2.1-2.1
	L518.9,117.8 M519.9,118.8l-2.1,2.1l0.4,0.4l2.1-2.1L519.9,118.8 M521,119.9l-2.1,2.1l0.4,0.4l2.1-2.1L521,119.9 M522,121l-2.1,2.1
	l0.4,0.4l2.1-2.1L522,121 M523.1,122l-2.1,2.1l0.4,0.4l2.1-2.1L523.1,122 M524.2,123.1l-2.1,2.1l0.4,0.4l2.1-2.1L524.2,123.1
	 M525.2,124.2l-2.1,2.1l0.4,0.4l2.1-2.1L525.2,124.2 M526.3,125.2l-2.1,2.1l0.4,0.4l2.1-2.1L526.3,125.2 M527.4,126.3l-2.1,2.1
	l0.4,0.4l2.1-2.1L527.4,126.3 M528.4,127.4l-2.1,2.1l0.4,0.4l2.1-2.1L528.4,127.4 M529.5,128.4l-2.1,2.1l0.4,0.4l2.1-2.1
	L529.5,128.4 M530.6,129.5l-2.1,2.1l0.4,0.4l2.1-2.1L530.6,129.5 M531.6,130.5l-2.1,2.1l0.4,0.4l2.1-2.1L531.6,130.5 M532.7,131.6
	l-2.1,2.1l0.4,0.4l2.1-2.1L532.7,131.6 M533.7,132.7l-2.1,2.1l0.4,0.4l2.1-2.1L533.7,132.7 M534.8,133.7l-2.1,2.1l0.4,0.4l2.1-2.1
	L534.8,133.7 M535.9,134.8l-2.1,2.1l0.4,0.4l2.1-2.1L535.9,134.8 M536.9,135.9l-2.1,2.1l0.4,0.4l2.1-2.1L536.9,135.9 M538,136.9
	l-2.1,2.1l0.4,0.4l2.1-2.1L538,136.9 M539.1,138l-2.1,2.1l0.4,0.4l2.1-2.1L539.1,138 M540.1,139.1l-2.1,2.1l0.4,0.4l2.1-2.1
	L540.1,139.1 M541.2,140.1l-2.1,2.1l0.4,0.4l2.1-2.1L541.2,140.1 M542.3,141.2l-2.1,2.1l0.4,0.4l2.1-2.1L542.3,141.2 M543.3,142.2
	l-2.1,2.1l0.4,0.4l2.1-2.1L543.3,142.2 M544.4,143.3l-2.1,2.1l0.4,0.4l2.1-2.1L544.4,143.3 M545.4,144.4l-2.1,2.1l0.4,0.4l2.1-2.1
	L545.4,144.4 M546.5,145.4l-2.1,2.1l0.4,0.4l2.1-2.1L546.5,145.4 M547.6,146.5l-2.1,2.1l0.4,0.4l2.1-2.1L547.6,146.5 M548.6,147.6
	l-2.1,2.1l0.4,0.4l2.1-2.1L548.6,147.6 M549.7,148.6l-2.1,2.1l0.4,0.4l2.1-2.1L549.7,148.6 M550.8,149.7l-2.1,2.1l0.4,0.4l2.1-2.1
	L550.8,149.7 M551.8,150.8l-2.1,2.1l0.4,0.4l2.1-2.1L551.8,150.8 M552.9,151.8l-2.1,2.1l0.4,0.4l2.1-2.1L552.9,151.8 M554,152.9
	l-2.1,2.1l0.4,0.4l2.1-2.1L554,152.9 M555,153.9l-2.1,2.1l0.4,0.4l2.1-2.1L555,153.9 M556.1,155l-2.1,2.1l0.4,0.4l2.1-2.1L556.1,155
	 M557.1,156.1l-2.1,2.1l0.4,0.4l2.1-2.1L557.1,156.1 M558.2,157.1l-2.1,2.1l0.4,0.4l2.1-2.1L558.2,157.1 M559.3,158.2l-2.1,2.1
	l0.4,0.4l2.1-2.1L559.3,158.2 M560.3,159.3l-2.1,2.1l0.4,0.4l2.1-2.1L560.3,159.3 M561.4,160.3l-2.1,2.1l0.4,0.4l2.1-2.1
	L561.4,160.3 M562.5,161.4l-2.1,2.1l0.4,0.4l2.1-2.1L562.5,161.4 M563.5,162.4l-2.1,2.1l0.4,0.4l2.1-2.1L563.5,162.4 M564.6,163.5
	l-2.1,2.1l0.4,0.4l2.1-2.1L564.6,163.5 M565.6,164.6l-2.1,2.1l0.4,0.4l2.1-2.1L565.6,164.6 M566.7,165.6l-2.1,2.1l0.4,0.4l2.1-2.1
	L566.7,165.6 M567.8,166.7l-2.1,2.1l0.4,0.4l2.1-2.1L567.8,166.7 M568.8,167.8l-2.1,2.1l0.4,0.4l2.1-2.1L568.8,167.8 M569.9,168.8
	l-2.1,2.1l0.4,0.4l2.1-2.1L569.9,168.8 M571,169.9l-2.1,2.1l0.4,0.4l2.1-2.1L571,169.9 M572,171l-2.1,2.1l0.4,0.4l2.1-2.1L572,171
	 M573.1,172l-2.1,2.1l0.4,0.4l2.1-2.1L573.1,172 M574.2,173.1l-2.1,2.1l0.4,0.4l2.1-2.1L574.2,173.1 M575.2,174.1l-2.1,2.1l0.4,0.4
	l2.1-2.1L575.2,174.1 M576.3,175.2l-2.1,2.1l0.4,0.4l2.1-2.1L576.3,175.2 M577.3,176.3l-2.1,2.1l0.4,0.4l2.1-2.1L577.3,176.3
	 M578.4,177.3l-2.1,2.1l0.4,0.4l2.1-2.1L578.4,177.3 M579.5,178.4l-2.1,2.1l0.4,0.4l2.1-2.1L579.5,178.4 M580.5,179.5l-2.1,2.1
	l0.4,0.4l2.1-2.1L580.5,179.5 M581.6,180.5l-2.1,2.1l0.4,0.4l2.1-2.1L581.6,180.5 M582.7,181.6l-2.1,2.1l0.4,0.4l2.1-2.1
	L582.7,181.6 M583.7,182.7l-2.1,2.1l0.4,0.4l2.1-2.1L583.7,182.7 M584.8,183.7l-2.1,2.1l0.4,0.4l2.1-2.1L584.8,183.7 M585.9,184.8
	l-2.1,2.1l0.4,0.4l2.1-2.1L585.9,184.8 M586.9,185.8l-2.1,2.1l0.4,0.4l2.1-2.1L586.9,185.8 M588,186.9l-2.1,2.1l0.4,0.4l2.1-2.1
	L588,186.9 M589,188l-2.1,2.1l0.4,0.4l2.1-2.1L589,188 M590.1,189l-2.1,2.1l0.4,0.4l2.1-2.1L590.1,189 M591.2,190.1l-2.1,2.1
	l0.4,0.4l2.1-2.1L591.2,190.1 M592.2,191.2l-2.1,2.1l0.4,0.4l2.1-2.1L592.2,191.2 M593.3,192.2l-2.1,2.1l0.4,0.4l2.1-2.1
	L593.3,192.2 M594.4,193.3l-2.1,2.1l0.4,0.4l2.1-2.1L594.4,193.3 M595.4,194.4l-2.1,2.1l0.4,0.4l2.1-2.1L595.4,194.4 M596.5,195.4
	l-2.1,2.1l0.4,0.4l2.1-2.1L596.5,195.4 M597.6,196.5l-2.1,2.1l0.4,0.4l2.1-2.1L597.6,196.5 M598.6,197.5l-2.1,2.1l0.4,0.4l2.1-2.1
	L598.6,197.5 M599.7,198.6l-2.1,2.1l0.4,0.4l2.1-2.1L599.7,198.6 M600.7,199.7l-2.1,2.1l0.4,0.4l2.1-2.1L600.7,199.7 M601.8,200.7
	l-2.1,2.1l0.4,0.4l2.1-2.1L601.8,200.7 M602.9,201.8l-2.1,2.1l0.4,0.4l2.1-2.1L602.9,201.8 M603.9,202.9l-2.1,2.1l0.4,0.4l2.1-2.1
	L603.9,202.9 M605,203.9l-2.1,2.1l0.4,0.4l2.1-2.1L605,203.9 M606.1,205l-2.1,2.1l0.4,0.4l2.1-2.1L606.1,205 M607.1,206l-2.1,2.1
	l0.4,0.4l2.1-2.1L607.1,206 M608.2,207.1l-2.1,2.1l0.4,0.4l2.1-2.1L608.2,207.1 M609.2,208.2l-2.1,2.1l0.4,0.4l2.1-2.1L609.2,208.2
	 M610.3,209.2l-2.1,2.1l0.4,0.4l2.1-2.1L610.3,209.2 M611.4,210.3l-2.1,2.1l0.4,0.4l2.1-2.1L611.4,210.3 M612.4,211.4l-2.1,2.1
	l0.4,0.4l2.1-2.1L612.4,211.4 M613.5,212.4l-2.1,2.1l0.4,0.4l2.1-2.1L613.5,212.4 M614.6,213.5l-2.1,2.1l0.4,0.4l2.1-2.1
	L614.6,213.5 M615.6,214.6l-2.1,2.1l0.4,0.4l2.1-2.1L615.6,214.6 M616.7,215.6l-2.1,2.1l0.4,0.4l2.1-2.1L616.7,215.6 M617.8,216.7
	l-2.1,2.1l0.4,0.4l2.1-2.1L617.8,216.7 M618.8,217.7l-2.1,2.1l0.4,0.4l2.1-2.1L618.8,217.7 M619.9,218.8l-2.1,2.1l0.4,0.4l2.1-2.1
	L619.9,218.8 M620.9,219.9l-2.1,2.1l0.4,0.4l2.1-2.1L620.9,219.9 M622,220.9l-2.1,2.1l0.4,0.4l2.1-2.1L622,220.9 M623.1,222
	l-2.1,2.1l0.4,0.4l2.1-2.1L623.1,222 M624.1,223.1l-2.1,2.1l0.4,0.4l2.1-2.1L624.1,223.1 M625.2,224.1l-2.1,2.1l0.4,0.4l2.1-2.1
	L625.2,224.1 M626.3,225.2l-2.1,2.1l0.4,0.4l2.1-2.1L626.3,225.2 M627.3,226.3l-2.1,2.1l0.4,0.4l2.1-2.1L627.3,226.3 M628.4,227.3
	l-2.1,2.1l0.4,0.4l2.1-2.1L628.4,227.3 M629.5,228.4l-2.1,2.1l0.4,0.4l2.1-2.1L629.5,228.4 M630.5,229.4l-2.1,2.1l0.4,0.4l2.1-2.1
	L630.5,229.4 M631.6,230.5l-2.1,2.1l0.4,0.4l2.1-2.1L631.6,230.5 M632.6,231.6l-2.1,2.1l0.4,0.4l2.1-2.1L632.6,231.6 M633.7,232.6
	l-2.1,2.1l0.4,0.4l2.1-2.1L633.7,232.6 M634.8,233.7l-2.1,2.1l0.4,0.4l2.1-2.1L634.8,233.7 M635.8,234.8l-2.1,2.1l0.4,0.4l2.1-2.1
	L635.8,234.8 M636.9,235.8l-2.1,2.1l0.4,0.4l2.1-2.1L636.9,235.8 M638,236.9l-2.1,2.1l0.4,0.4l2.1-2.1L638,236.9 M639,238l-2.1,2.1
	l0.4,0.4l2.1-2.1L639,238 M640.1,239l-2.1,2.1l0.4,0.4l2.1-2.1L640.1,239 M641.2,240.1l-2.1,2.1l0.4,0.4l2.1-2.1L641.2,240.1
	 M642.2,241.1l-2.1,2.1l0.4,0.4l2.1-2.1L642.2,241.1 M643.3,242.2l-2.1,2.1l0.4,0.4l2.1-2.1L643.3,242.2 M644.3,243.3l-2.1,2.1
	l0.4,0.4l2.1-2.1L644.3,243.3 M645.4,244.3l-2.1,2.1l0.4,0.4l2.1-2.1L645.4,244.3 M646.5,245.4l-2.1,2.1l0.4,0.4l2.1-2.1
	L646.5,245.4 M647.5,246.5l-2.1,2.1l0.4,0.4l2.1-2.1L647.5,246.5"/>
<polyline points="652.8,253.8 646.6,240.5 639.4,247.6 652.8,253.8 "/>
<path d="M500.8,429l2.1,2.1l0.4-0.4l-2.1-2.1L500.8,429 M501.9,428l2.1,2.1l0.4-0.4l-2.1-2.1L501.9,428 M503,426.9l2.1,2.1l0.4-0.4
	l-2.1-2.1L503,426.9 M504,425.8l2.1,2.1l0.4-0.4l-2.1-2.1L504,425.8 M505.1,424.8l2.1,2.1l0.4-0.4l-2.1-2.1L505.1,424.8
	 M506.2,423.7l2.1,2.1l0.4-0.4l-2.1-2.1L506.2,423.7 M507.2,422.6l2.1,2.1l0.4-0.4l-2.1-2.1L507.2,422.6 M508.3,421.6l2.1,2.1
	l0.4-0.4l-2.1-2.1L508.3,421.6 M509.3,420.5l2.1,2.1l0.4-0.4l-2.1-2.1L509.3,420.5 M510.4,419.4l2.1,2.1l0.4-0.4l-2.1-2.1
	L510.4,419.4 M511.5,418.4l2.1,2.1l0.4-0.4l-2.1-2.1L511.5,418.4 M512.5,417.3l2.1,2.1l0.4-0.4l-2.1-2.1L512.5,417.3 M513.6,416.3
	l2.1,2.1l0.4-0.4l-2.1-2.1L513.6,416.3 M514.7,415.2l2.1,2.1l0.4-0.4l-2.1-2.1L514.7,415.2 M515.7,414.1l2.1,2.1l0.4-0.4l-2.1-2.1
	L515.7,414.1 M516.8,413.1l2.1,2.1l0.4-0.4l-2.1-2.1L516.8,413.1 M517.9,412l2.1,2.1l0.4-0.4l-2.1-2.1L517.9,412 M518.9,410.9
	l2.1,2.1l0.4-0.4l-2.1-2.1L518.9,410.9 M520,409.9l2.1,2.1l0.4-0.4l-2.1-2.1L520,409.9 M521,408.8l2.1,2.1l0.4-0.4l-2.1-2.1
	L521,408.8 M522.1,407.7l2.1,2.1l0.4-0.4l-2.1-2.1L522.1,407.7 M523.2,406.7l2.1,2.1l0.4-0.4l-2.1-2.1L523.2,406.7 M524.2,405.6
	l2.1,2.1l0.4-0.4l-2.1-2.1L524.2,405.6 M525.3,404.6l2.1,2.1l0.4-0.4l-2.1-2.1L525.3,404.6 M526.4,403.5l2.1,2.1l0.4-0.4l-2.1-2.1
	L526.4,403.5 M527.4,402.4l2.1,2.1l0.4-0.4l-2.1-2.1L527.4,402.4 M528.5,401.4l2.1,2.1l0.4-0.4l-2.1-2.1L528.5,401.4 M529.5,400.3
	l2.1,2.1l0.4-0.4l-2.1-2.1L529.5,400.3 M530.6,399.2l2.1,2.1l0.4-0.4l-2.1-2.1L530.6,399.2 M531.7,398.2l2.1,2.1l0.4-0.4l-2.1-2.1
	L531.7,398.2 M532.7,397.1l2.1,2.1l0.4-0.4l-2.1-2.1L532.7,397.1 M533.8,396.1l2.1,2.1l0.4-0.4l-2.1-2.1L533.8,396.1 M534.9,395
	l2.1,2.1l0.4-0.4l-2.1-2.1L534.9,395 M535.9,393.9l2.1,2.1l0.4-0.4l-2.1-2.1L535.9,393.9 M537,392.9l2.1,2.1l0.4-0.4l-2.1-2.1
	L537,392.9 M538.1,391.8l2.1,2.1l0.4-0.4l-2.1-2.1L538.1,391.8 M539.1,390.7l2.1,2.1l0.4-0.4l-2.1-2.1L539.1,390.7 M540.2,389.7
	l2.1,2.1l0.4-0.4l-2.1-2.1L540.2,389.7 M541.2,388.6l2.1,2.1l0.4-0.4l-2.1-2.1L541.2,388.6 M542.3,387.5l2.1,2.1l0.4-0.4l-2.1-2.1
	L542.3,387.5 M543.4,386.5l2.1,2.1l0.4-0.4l-2.1-2.1L543.4,386.5 M544.4,385.4l2.1,2.1l0.4-0.4l-2.1-2.1L544.4,385.4 M545.5,384.4
	l2.1,2.1l0.4-0.4l-2.1-2.1L545.5,384.4 M546.6,383.3l2.1,2.1l0.4-0.4l-2.1-2.1L546.6,383.3 M547.6,382.2l2.1,2.1l0.4-0.4l-2.1-2.1
	L547.6,382.2 M548.7,381.2l2.1,2.1l0.4-0.4l-2.1-2.1L548.7,381.2 M549.8,380.1l2.1,2.1l0.4-0.4l-2.1-2.1L549.8,380.1 M550.8,379
	l2.1,2.1l0.4-0.4l-2.1-2.1L550.8,379 M551.9,378l2.1,2.1l0.4-0.4l-2.1-2.1L551.9,378 M552.9,376.9l2.1,2.1l0.4-0.4l-2.1-2.1
	L552.9,376.9 M554,375.8l2.1,2.1l0.4-0.4l-2.1-2.1L554,375.8 M555.1,374.8l2.1,2.1l0.4-0.4l-2.1-2.1L555.1,374.8 M556.1,373.7
	l2.1,2.1l0.4-0.4l-2.1-2.1L556.1,373.7 M557.2,372.7l2.1,2.1l0.4-0.4l-2.1-2.1L557.2,372.7 M558.3,371.6l2.1,2.1l0.4-0.4l-2.1-2.1
	L558.3,371.6 M559.3,370.5l2.1,2.1l0.4-0.4l-2.1-2.1L559.3,370.5 M560.4,369.5l2.1,2.1l0.4-0.4l-2.1-2.1L560.4,369.5 M561.5,368.4
	l2.1,2.1l0.4-0.4l-2.1-2.1L561.5,368.4 M562.5,367.3l2.1,2.1l0.4-0.4l-2.1-2.1L562.5,367.3 M563.6,366.3l2.1,2.1l0.4-0.4l-2.1-2.1
	L563.6,366.3 M564.6,365.2l2.1,2.1l0.4-0.4l-2.1-2.1L564.6,365.2 M565.7,364.1l2.1,2.1l0.4-0.4l-2.1-2.1L565.7,364.1 M566.8,363.1
	l2.1,2.1l0.4-0.4l-2.1-2.1L566.8,363.1 M567.8,362l2.1,2.1l0.4-0.4l-2.1-2.1L567.8,362 M568.9,361l2.1,2.1l0.4-0.4l-2.1-2.1
	L568.9,361 M570,359.9l2.1,2.1l0.4-0.4l-2.1-2.1L570,359.9 M571,358.8l2.1,2.1l0.4-0.4l-2.1-2.1L571,358.8 M572.1,357.8l2.1,2.1
	l0.4-0.4l-2.1-2.1L572.1,357.8 M573.2,356.7l2.1,2.1l0.4-0.4l-2.1-2.1L573.2,356.7 M574.2,355.6l2.1,2.1l0.4-0.4l-2.1-2.1
	L574.2,355.6 M575.3,354.6l2.1,2.1l0.4-0.4l-2.1-2.1L575.3,354.6 M576.3,353.5l2.1,2.1l0.4-0.4l-2.1-2.1L576.3,353.5 M577.4,352.5
	l2.1,2.1l0.4-0.4l-2.1-2.1L577.4,352.5 M578.5,351.4l2.1,2.1l0.4-0.4l-2.1-2.1L578.5,351.4 M579.5,350.3l2.1,2.1l0.4-0.4l-2.1-2.1
	L579.5,350.3 M580.6,349.3l2.1,2.1l0.4-0.4l-2.1-2.1L580.6,349.3 M581.7,348.2l2.1,2.1l0.4-0.4l-2.1-2.1L581.7,348.2 M582.7,347.1
	l2.1,2.1l0.4-0.4l-2.1-2.1L582.7,347.1 M583.8,346.1l2.1,2.1l0.4-0.4l-2.1-2.1L583.8,346.1 M584.8,345l2.1,2.1l0.4-0.4l-2.1-2.1
	L584.8,345 M585.9,343.9l2.1,2.1l0.4-0.4l-2.1-2.1L585.9,343.9 M587,342.9l2.1,2.1l0.4-0.4l-2.1-2.1L587,342.9 M588,341.8l2.1,2.1
	l0.4-0.4l-2.1-2.1L588,341.8 M589.1,340.8l2.1,2.1l0.4-0.4l-2.1-2.1L589.1,340.8 M590.2,339.7l2.1,2.1l0.4-0.4l-2.1-2.1L590.2,339.7
	 M591.2,338.6l2.1,2.1l0.4-0.4l-2.1-2.1L591.2,338.6 M592.3,337.6l2.1,2.1l0.4-0.4l-2.1-2.1L592.3,337.6 M593.4,336.5l2.1,2.1
	l0.4-0.4l-2.1-2.1L593.4,336.5 M594.4,335.4l2.1,2.1l0.4-0.4l-2.1-2.1L594.4,335.4 M595.5,334.4l2.1,2.1l0.4-0.4l-2.1-2.1
	L595.5,334.4 M596.5,333.3l2.1,2.1l0.4-0.4l-2.1-2.1L596.5,333.3 M597.6,332.2l2.1,2.1l0.4-0.4l-2.1-2.1L597.6,332.2 M598.7,331.2
	l2.1,2.1l0.4-0.4l-2.1-2.1L598.7,331.2 M599.7,330.1l2.1,2.1l0.4-0.4l-2.1-2.1L599.7,330.1 M600.8,329.1l2.1,2.1l0.4-0.4l-2.1-2.1
	L600.8,329.1 M601.9,328l2.1,2.1l0.4-0.4l-2.1-2.1L601.9,328 M602.9,326.9l2.1,2.1l0.4-0.4l-2.1-2.1L602.9,326.9 M604,325.9l2.1,2.1
	l0.4-0.4l-2.1-2.1L604,325.9 M605.1,324.8l2.1,2.1l0.4-0.4l-2.1-2.1L605.1,324.8 M606.1,323.7l2.1,2.1l0.4-0.4l-2.1-2.1L606.1,323.7
	 M607.2,322.7l2.1,2.1l0.4-0.4l-2.1-2.1L607.2,322.7 M608.2,321.6l2.1,2.1l0.4-0.4l-2.1-2.1L608.2,321.6 M609.3,320.5l2.1,2.1
	l0.4-0.4l-2.1-2.1L609.3,320.5 M610.4,319.5l2.1,2.1l0.4-0.4l-2.1-2.1L610.4,319.5 M611.4,318.4l2.1,2.1l0.4-0.4l-2.1-2.1
	L611.4,318.4 M612.5,317.4l2.1,2.1l0.4-0.4l-2.1-2.1L612.5,317.4 M613.6,316.3l2.1,2.1l0.4-0.4l-2.1-2.1L613.6,316.3 M614.6,315.2
	l2.1,2.1l0.4-0.4l-2.1-2.1L614.6,315.2 M615.7,314.2l2.1,2.1l0.4-0.4l-2.1-2.1L615.7,314.2 M616.7,313.1l2.1,2.1l0.4-0.4l-2.1-2.1
	L616.7,313.1 M617.8,312l2.1,2.1l0.4-0.4l-2.1-2.1L617.8,312 M618.9,311l2.1,2.1l0.4-0.4l-2.1-2.1L618.9,311 M619.9,309.9l2.1,2.1
	l0.4-0.4l-2.1-2.1L619.9,309.9 M621,308.9l2.1,2.1l0.4-0.4l-2.1-2.1L621,308.9 M622.1,307.8l2.1,2.1l0.4-0.4l-2.1-2.1L622.1,307.8
	 M623.1,306.7l2.1,2.1l0.4-0.4l-2.1-2.1L623.1,306.7 M624.2,305.7l2.1,2.1l0.4-0.4l-2.1-2.1L624.2,305.7 M625.3,304.6l2.1,2.1
	l0.4-0.4l-2.1-2.1L625.3,304.6 M626.3,303.5l2.1,2.1l0.4-0.4l-2.1-2.1L626.3,303.5 M627.4,302.5l2.1,2.1l0.4-0.4l-2.1-2.1
	L627.4,302.5 M628.4,301.4l2.1,2.1l0.4-0.4l-2.1-2.1L628.4,301.4 M629.5,300.3l2.1,2.1l0.4-0.4l-2.1-2.1L629.5,300.3 M630.6,299.3
	l2.1,2.1l0.4-0.4l-2.1-2.1L630.6,299.3 M631.6,298.2l2.1,2.1l0.4-0.4l-2.1-2.1L631.6,298.2 M632.7,297.2l2.1,2.1l0.4-0.4l-2.1-2.1
	L632.7,297.2 M633.8,296.1l2.1,2.1l0.4-0.4l-2.1-2.1L633.8,296.1 M634.8,295l2.1,2.1l0.4-0.4l-2.1-2.1L634.8,295 M635.9,294l2.1,2.1
	l0.4-0.4l-2.1-2.1L635.9,294 M637,292.9l2.1,2.1l0.4-0.4l-2.1-2.1L637,292.9 M638,291.8l2.1,2.1l0.4-0.4l-2.1-2.1L638,291.8
	 M639.1,290.8l2.1,2.1l0.4-0.4l-2.1-2.1L639.1,290.8 M640.1,289.7l2.1,2.1l0.4-0.4l-2.1-2.1L640.1,289.7 M641.2,288.6l2.1,2.1
	l0.4-0.4l-2.1-2.1L641.2,288.6 M642.3,287.6l2.1,2.1l0.4-0.4l-2.1-2.1L642.3,287.6 M643.3,286.5l2.1,2.1l0.4-0.4l-2.1-2.1
	L643.3,286.5 M644.4,285.5l2.1,2.1l0.4-0.4l-2.1-2.1L644.4,285.5 M645.5,284.4l2.1,2.1l0.4-0.4l-2.1-2.1L645.5,284.4 M646.5,283.3
	l2.1,2.1l0.4-0.4l-2.1-2.1L646.5,283.3 M647.6,282.3l2.1,2.1l0.4-0.4l-2.1-2.1L647.6,282.3"/>
<polyline points="655,277 641.6,283.2 648.7,290.4 655,277 "/>
<text transform="matrix(1 0 0 1 712.2188 271.5811)" class="st2 st3">comb</text>
<text transform="matrix(1 0 0 1 699.1328 283.5811)" class="st2 st4">rtsp://vmp.local/comb</text>
<polygon points="669.1,242.3 668.1,242.3 668.1,292.5 832.6,292.5 832.6,241.3 668.1,241.3 668.1,242.3 669.1,242.3 669.1,243.3 
	830.6,243.3 830.6,290.5 670.1,290.5 670.1,242.3 669.1,242.3 669.1,243.3 669.1,242.3 "/>
<path d="M120.1,442.5c9.1,0,14.8-7.1,14.8-16.2v-32.8c0-9.2-5.7-16.3-14.8-16.3c-9.1,0-14.8,7.1-14.8,16.3v32.8
	C105.3,435.5,111,442.5,120.1,442.5 M89.1,428.6c0,17,11.7,29.4,29.8,29.9v17.2H98.2c-0.6,0-1.2,0.5-1.2,1.2c0,0.6,0.5,1.2,1.2,1.2
	H142c0.6,0,1.2-0.5,1.2-1.2c0-0.7-0.5-1.2-1.2-1.2h-20.7v-17.2c18.2-0.5,29.8-12.9,29.8-29.9v-8.9c0-0.7-0.5-1.2-1.2-1.2
	c-0.6,0-1.2,0.5-1.2,1.2v8.9c0,16-11.2,27.5-28.7,27.5c-17.4,0-28.7-11.5-28.7-27.5v-8.9c0-0.7-0.5-1.2-1.2-1.2
	c-0.6,0-1.2,0.5-1.2,1.2V428.6"/>
<path d="M120.1,442.5v-1.1c4.3,0,7.6-1.6,10-4.3c2.4-2.7,3.7-6.4,3.7-10.8v-32.8c0-4.3-1.4-8.1-3.7-10.8c-2.4-2.7-5.7-4.3-10-4.3
	c-4.3,0-7.6,1.6-10,4.3c-2.4,2.7-3.7,6.5-3.7,10.8v32.8c0,4.3,1.4,8.1,3.7,10.8c2.4,2.7,5.7,4.3,10,4.3V442.5v1.1
	c-4.8,0-8.9-1.9-11.7-5.1c-2.8-3.1-4.3-7.5-4.3-12.3v-32.8c0-4.8,1.5-9.2,4.3-12.3c2.8-3.2,6.8-5.1,11.7-5.1c4.9,0,8.9,1.9,11.7,5.1
	c2.8,3.2,4.3,7.5,4.3,12.3v32.8c0,4.8-1.5,9.1-4.3,12.3c-2.8,3.2-6.8,5.1-11.7,5.1V442.5 M89.1,428.6h1.1c0,8.3,2.8,15.3,7.8,20.4
	c5,5.1,12.1,8.2,20.9,8.4l1.1,0v19.5H98.2v0l0,0h0v0l0,0l0,0.1l0,0l0,0l0,0l0,0v0h0l0,0v0H142v0l0,0l0,0l0,0h0v0l0,0h0l0-0.1l0,0
	l0,0v0h0l0,0v0h-21.8v-19.5l1.1,0c8.8-0.3,16-3.4,20.9-8.4c5-5.1,7.8-12.1,7.8-20.4v-8.9l0-0.1l-0.1,0v0l0,0l0,0v0l0,0l0,0.1v8.9
	c0,8.3-2.9,15.5-8.1,20.6c-5.2,5.1-12.7,8.1-21.7,8.1c-9,0-16.4-3-21.7-8.1c-5.2-5.1-8.1-12.3-8.1-20.6v-8.9l0-0.1l-0.1,0v0l0,0l0,0
	v0l0,0l0,0.1v8.9H89.1h-1.1v-8.9c0-1.3,1-2.4,2.3-2.4c0.6,0,1.2,0.3,1.7,0.7c0.4,0.4,0.7,1,0.7,1.7v8.9c0,7.7,2.7,14.3,7.4,19
	c4.8,4.6,11.6,7.4,20.1,7.4c8.5,0,15.3-2.8,20.1-7.4c4.7-4.7,7.4-11.2,7.4-19v-8.9c0-1.3,1-2.4,2.3-2.4c0.6,0,1.2,0.3,1.7,0.7
	c0.4,0.4,0.7,1,0.7,1.7v8.9c0,8.8-3,16.4-8.4,21.9c-5.4,5.5-13.2,8.8-22.5,9.1l0-1.1h1.1v16.1H142c1.3,0,2.3,1.1,2.3,2.4
	c0,0.6-0.3,1.2-0.7,1.6c-0.4,0.4-1,0.7-1.6,0.7H98.2c-0.6,0-1.2-0.3-1.6-0.7c-0.4-0.4-0.7-1-0.7-1.6c0-1.3,1-2.4,2.3-2.4h19.5v-16.1
	h1.1l0,1.1c-9.3-0.3-17.1-3.6-22.5-9.1c-5.4-5.5-8.4-13.2-8.4-21.9H89.1"/>
<path d="M214.8,426.1v3h0.6v-3H214.8 M216.3,426.1v3h0.6v-3H216.3 M217.9,426.1v3h0.6v-3H217.9 M219.4,426.1v3h0.6v-3H219.4
	 M220.9,426.1v3h0.6v-3H220.9 M222.4,426.1v3h0.6v-3H222.4 M223.9,426.1v3h0.6v-3H223.9 M225.4,426.1v3h0.6v-3H225.4 M226.9,426.1v3
	h0.6v-3H226.9 M228.4,426.1v3h0.6v-3H228.4 M229.9,426.1v3h0.6v-3H229.9 M231.4,426.1v3h0.6v-3H231.4 M232.9,426.1v3h0.6v-3H232.9
	 M234.4,426.1v3h0.6v-3H234.4 M236,426.1v3h0.6v-3H236 M237.5,426.1v3h0.6v-3H237.5 M239,426.1v3h0.6v-3H239 M240.5,426.1v3h0.6v-3
	H240.5 M242,426.1v3h0.6v-3H242 M243.5,426.1v3h0.6v-3H243.5 M245,426.1v3h0.6v-3H245 M246.5,426.1v3h0.6v-3H246.5 M248,426.1v3h0.6
	v-3H248 M249.5,426.1v3h0.6v-3H249.5 M251,426.1v3h0.6v-3H251 M252.5,426.1v3h0.6v-3H252.5 M254.1,426.1v3h0.6v-3H254.1
	 M255.6,426.1v3h0.6v-3H255.6 M257.1,426.1v3h0.6v-3H257.1 M258.6,426.1v3h0.6v-3H258.6 M260.1,426.1v3h0.6v-3H260.1 M261.6,426.1v3
	h0.6v-3H261.6 M263.1,426.1v3h0.6v-3H263.1 M264.6,426.1v3h0.6v-3H264.6 M266.1,426.1v3h0.6v-3H266.1 M267.6,426.1v3h0.6v-3H267.6
	 M269.1,426.1v3h0.6v-3H269.1 M270.6,426.1v3h0.6v-3H270.6 M272.2,426.1v3h0.6v-3H272.2 M273.7,426.1v3h0.6v-3H273.7 M275.2,426.1v3
	h0.6v-3H275.2 M276.7,426.1v3h0.6v-3H276.7 M278.2,426.1v3h0.6v-3H278.2 M279.7,426.1v3h0.6v-3H279.7 M281.2,426.1v3h0.6v-3H281.2
	 M282.7,426.1v3h0.6v-3H282.7 M284.2,426.1v3h0.6v-3H284.2 M285.7,426.1v3h0.6v-3H285.7 M287.2,426.1v3h0.6v-3H287.2 M288.7,426.1v3
	h0.6v-3H288.7 M290.3,426.1v3h0.6v-3H290.3 M291.8,426.1v3h0.6v-3H291.8 M293.3,426.1v3h0.6v-3H293.3 M294.8,426.1v3h0.6v-3H294.8
	 M296.3,426.1v3h0.6v-3H296.3 M297.8,426.1v3h0.6v-3H297.8 M299.3,426.1v3h0.6v-3H299.3 M300.8,426.1v3h0.6v-3H300.8 M302.3,426.1v3
	h0.6v-3H302.3 M303.8,426.1v3h0.6v-3H303.8 M305.3,426.1v3h0.6v-3H305.3 M306.8,426.1v3h0.6v-3H306.8 M308.4,426.1v3h0.6v-3H308.4
	 M309.9,426.1v3h0.6v-3H309.9 M311.4,426.1v3h0.6v-3H311.4 M312.9,426.1v3h0.6v-3H312.9 M314.4,426.1v3h0.6v-3H314.4 M315.9,426.1v3
	h0.6v-3H315.9 M317.4,426.1v3h0.6v-3H317.4 M318.9,426.1v3h0.6v-3H318.9 M320.4,426.1v3h0.6v-3H320.4"/>
<polyline points="329.4,427.6 315.5,422.5 315.5,432.6 329.4,427.6 "/>
<text transform="matrix(1 0 0 1 218.1094 415.8623)" class="st0 st1">alsa_input.pci</text>
<text transform="matrix(1 0 0 1 371.9375 437.3232)" class="st2 st3">audio0</text>
<polyline points="348.5,408.1 347.5,408.1 347.5,448.9 487.2,448.9 487.2,407.1 347.5,407.1 347.5,408.1 348.5,408.1 348.5,409.1 
	485.2,409.1 485.2,446.9 349.5,446.9 349.5,408.1 348.5,408.1 348.5,409.1 348.5,408.1 "/>
<path d="M500.8,265.4v3h0.6v-3H500.8 M502.3,265.4v3h0.6v-3H502.3 M503.9,265.4v3h0.6v-3H503.9 M505.4,265.4v3h0.6v-3H505.4
	 M506.9,265.4v3h0.6v-3H506.9 M508.4,265.4v3h0.6v-3H508.4 M509.9,265.4v3h0.6v-3H509.9 M511.4,265.4v3h0.6v-3H511.4 M512.9,265.4v3
	h0.6v-3H512.9 M514.5,265.4v3h0.6v-3H514.5 M516,265.4v3h0.6v-3H516 M517.5,265.4v3h0.6v-3H517.5 M519,265.4v3h0.6v-3H519
	 M520.5,265.4v3h0.6v-3H520.5 M522,265.4v3h0.6v-3H522 M523.5,265.4v3h0.6v-3H523.5 M525,265.4v3h0.6v-3H525 M526.5,265.4v3h0.6v-3
	H526.5 M528.1,265.4v3h0.6v-3H528.1 M529.6,265.4v3h0.6v-3H529.6 M531.1,265.4v3h0.6v-3H531.1 M532.6,265.4v3h0.6v-3H532.6
	 M534.1,265.4v3h0.6v-3H534.1 M535.6,265.4v3h0.6v-3H535.6 M537.1,265.4v3h0.6v-3H537.1 M538.6,265.4v3h0.6v-3H538.6 M540.2,265.4v3
	h0.6v-3H540.2 M541.7,265.4v3h0.6v-3H541.7 M543.2,265.4v3h0.6v-3H543.2 M544.7,265.4v3h0.6v-3H544.7 M546.2,265.4v3h0.6v-3H546.2
	 M547.7,265.4v3h0.6v-3H547.7 M549.2,265.4v3h0.6v-3H549.2 M550.7,265.4v3h0.6v-3H550.7 M552.3,265.4v3h0.6v-3H552.3 M553.8,265.4v3
	h0.6v-3H553.8 M555.3,265.4v3h0.6v-3H555.3 M556.8,265.4v3h0.6v-3H556.8 M558.3,265.4v3h0.6v-3H558.3 M559.8,265.4v3h0.6v-3H559.8
	 M561.3,265.4v3h0.6v-3H561.3 M562.8,265.4v3h0.6v-3H562.8 M564.4,265.4v3h0.6v-3H564.4 M565.9,265.4v3h0.6v-3H565.9 M567.4,265.4v3
	h0.6v-3H567.4 M568.9,265.4v3h0.6v-3H568.9 M570.4,265.4v3h0.6v-3H570.4 M571.9,265.4v3h0.6v-3H571.9 M573.4,265.4v3h0.6v-3H573.4
	 M574.9,265.4v3h0.6v-3H574.9 M576.5,265.4v3h0.6v-3H576.5 M578,265.4v3h0.6v-3H578 M579.5,265.4v3h0.6v-3H579.5 M581,265.4v3h0.6
	v-3H581 M582.5,265.4v3h0.6v-3H582.5 M584,265.4v3h0.6v-3H584 M585.5,265.4v3h0.6v-3H585.5 M587,265.4v3h0.6v-3H587 M588.6,265.4v3
	h0.6v-3H588.6 M590.1,265.4v3h0.6v-3H590.1 M591.6,265.4v3h0.6v-3H591.6 M593.1,265.4v3h0.6v-3H593.1 M594.6,265.4v3h0.6v-3H594.6
	 M596.1,265.4v3h0.6v-3H596.1 M597.6,265.4v3h0.6v-3H597.6 M599.1,265.4v3h0.6v-3H599.1 M600.7,265.4v3h0.6v-3H600.7 M602.2,265.4v3
	h0.6v-3H602.2 M603.7,265.4v3h0.6v-3H603.7 M605.2,265.4v3h0.6v-3H605.2 M606.7,265.4v3h0.6v-3H606.7 M608.2,265.4v3h0.6v-3H608.2
	 M609.7,265.4v3h0.6v-3H609.7 M611.2,265.4v3h0.6v-3H611.2 M612.8,265.4v3h0.6v-3H612.8 M614.3,265.4v3h0.6v-3H614.3 M615.8,265.4v3
	h0.6v-3H615.8 M617.3,265.4v3h0.6v-3H617.3 M618.8,265.4v3h0.6v-3H618.8 M620.3,265.4v3h0.6v-3H620.3 M621.8,265.4v3h0.6v-3H621.8
	 M623.3,265.4v3h0.6v-3H623.3 M624.9,265.4v3h0.6v-3H624.9 M626.4,265.4v3h0.6v-3H626.4 M627.9,265.4v3h0.6v-3H627.9 M629.4,265.4v3
	h0.6v-3H629.4 M630.9,265.4v3h0.6v-3H630.9 M632.4,265.4v3h0.6v-3H632.4 M633.9,265.4v3h0.6v-3H633.9 M635.4,265.4v3h0.6v-3H635.4
	 M637,265.4v3h0.6v-3H637 M638.5,265.4v3h0.6v-3H638.5 M640,265.4v3h0.6v-3H640 M641.5,265.4v3h0.6v-3H641.5 M643,265.4v3h0.6v-3
	H643 M644.5,265.4v3h0.6v-3H644.5 M646,265.4v3h0.6v-3H646"/>
<polyline points="655,266.9 641.1,261.8 641.1,272 655,266.9 "/>
<path class="st5" d="M509,505H31c-6.6,0-12-5.4-12-12V27.3c0-6.6,5.4-12,12-12h478c6.6,0,12,5.4,12,12v92.6l0,0l-2.1,2.1l0.4,0.4
	l1.7-1.7v1.3l-1.1,1.1l0.4,0.4l0.7-0.7v1.3l0,0l0,0v141.2h-0.5v3h0.5v141.7l-0.6-0.6l-0.4,0.4l1,1v1.3l-1.7-1.7l-0.4,0.4l2.1,2.1v80
	C521,499.7,515.6,505,509,505 M98.2,474.6c-1.3,0-2.3,1.1-2.3,2.4c0,0.6,0.3,1.2,0.7,1.6c0.4,0.4,1,0.7,1.6,0.7H142
	c0.6,0,1.2-0.3,1.6-0.7c0.4-0.4,0.7-1,0.7-1.6c0-1.3-1-2.4-2.3-2.4h-19.5v-15c8.8-0.5,16.2-3.8,21.4-9.1c5.4-5.5,8.4-13.2,8.4-21.9
	v-8.9c0-0.6-0.3-1.2-0.7-1.7c-0.4-0.4-1-0.7-1.7-0.7c0,0,0,0,0,0c-1.3,0-2.3,1.1-2.3,2.4v8.9c0,7.7-2.7,14.3-7.4,19
	c-4.8,4.6-11.6,7.4-20.1,7.4c-8.5,0-15.3-2.8-20.1-7.4c-4.7-4.7-7.4-11.2-7.4-19v-8.9c0-0.6-0.3-1.2-0.7-1.7c-0.4-0.4-1-0.7-1.7-0.7
	c0,0,0,0,0,0c-1.3,0-2.3,1.1-2.3,2.4v8.9h1.1l0,0h-1.1c0,8.8,3,16.4,8.4,21.9c5.2,5.3,12.6,8.6,21.4,9.1v15H98.2 M347.5,408.1v40.8
	h139.7v-41.9H347.5V408.1 M120.1,443.7C120.1,443.7,120.2,443.7,120.1,443.7c4.9,0,8.9-1.9,11.7-5.1c2.8-3.1,4.3-7.5,4.3-12.3v-32.8
	c0-4.8-1.5-9.2-4.3-12.3c-2.8-3.2-6.8-5.1-11.7-5.1c0,0,0,0,0,0c0,0,0,0,0,0c-4.8,0-8.9,1.9-11.7,5.1c-2.8,3.2-4.3,7.5-4.3,12.3
	v32.8c0,4.8,1.5,9.1,4.3,12.3C111.2,441.7,115.3,443.7,120.1,443.7C120.1,443.7,120.1,443.7,120.1,443.7L120.1,443.7 M315.5,422.5
	v10.1l13.9-5.1L315.5,422.5 M501.2,428.6l-0.4,0.4l2.1,2.1l0.4-0.4L501.2,428.6 M502.3,427.6l-0.4,0.4l2.1,2.1l0.4-0.4L502.3,427.6
	 M314.4,426.1v3h0.6v-3H314.4 M312.9,426.1v3h0.6v-3H312.9 M311.4,426.1v3h0.6v-3H311.4 M309.9,426.1v3h0.6v-3H309.9 M308.4,426.1v3
	h0.6v-3H308.4 M306.8,426.1v3h0.6v-3H306.8 M305.3,426.1v3h0.6v-3H305.3 M303.8,426.1v3h0.6v-3H303.8 M302.3,426.1v3h0.6v-3H302.3
	 M300.8,426.1v3h0.6v-3H300.8 M299.3,426.1v3h0.6v-3H299.3 M297.8,426.1v3h0.6v-3H297.8 M296.3,426.1v3h0.6v-3H296.3 M294.8,426.1v3
	h0.6v-3H294.8 M293.3,426.1v3h0.6v-3H293.3 M291.8,426.1v3h0.6v-3H291.8 M290.3,426.1v3h0.6v-3H290.3 M288.7,426.1v3h0.6v-3H288.7
	 M287.2,426.1v3h0.6v-3H287.2 M285.7,426.1v3h0.6v-3H285.7 M284.2,426.1v3h0.6v-3H284.2 M282.7,426.1v3h0.6v-3H282.7 M281.2,426.1v3
	h0.6v-3H281.2 M279.7,426.1v3h0.6v-3H279.7 M278.2,426.1v3h0.6v-3H278.2 M276.7,426.1v3h0.6v-3H276.7 M275.2,426.1v3h0.6v-3H275.2
	 M273.7,426.1v3h0.6v-3H273.7 M272.2,426.1v3h0.6v-3H272.2 M270.6,426.1v3h0.6v-3H270.6 M269.1,426.1v3h0.6v-3H269.1 M267.6,426.1v3
	h0.6v-3H267.6 M266.1,426.1v3h0.6v-3H266.1 M264.6,426.1v3h0.6v-3H264.6 M263.1,426.1v3h0.6v-3H263.1 M261.6,426.1v3h0.6v-3H261.6
	 M260.1,426.1v3h0.6v-3H260.1 M258.6,426.1v3h0.6v-3H258.6 M257.1,426.1v3h0.6v-3H257.1 M255.6,426.1v3h0.6v-3H255.6 M254.1,426.1v3
	h0.6v-3H254.1 M252.5,426.1v3h0.6v-3H252.5 M251,426.1v3h0.6v-3H251 M249.5,426.1v3h0.6v-3H249.5 M248,426.1v3h0.6v-3H248
	 M246.5,426.1v3h0.6v-3H246.5 M245,426.1v3h0.6v-3H245 M243.5,426.1v3h0.6v-3H243.5 M242,426.1v3h0.6v-3H242 M240.5,426.1v3h0.6v-3
	H240.5 M239,426.1v3h0.6v-3H239 M237.5,426.1v3h0.6v-3H237.5 M236,426.1v3h0.6v-3H236 M234.4,426.1v3h0.6v-3H234.4 M232.9,426.1v3
	h0.6v-3H232.9 M231.4,426.1v3h0.6v-3H231.4 M229.9,426.1v3h0.6v-3H229.9 M228.4,426.1v3h0.6v-3H228.4 M226.9,426.1v3h0.6v-3H226.9
	 M225.4,426.1v3h0.6v-3H225.4 M223.9,426.1v3h0.6v-3H223.9 M222.4,426.1v3h0.6v-3H222.4 M220.9,426.1v3h0.6v-3H220.9 M219.4,426.1v3
	h0.6v-3H219.4 M217.9,426.1v3h0.6v-3H217.9 M216.3,426.1v3h0.6v-3H216.3 M214.8,426.1v3h0.6v-3H214.8 M503.4,426.5l-0.4,0.4l2.1,2.1
	l0.4-0.4L503.4,426.5 M504.4,425.4l-0.4,0.4l2.1,2.1l0.4-0.4L504.4,425.4 M505.5,424.4l-0.4,0.4l2.1,2.1l0.4-0.4L505.5,424.4
	 M506.6,423.3l-0.4,0.4l2.1,2.1l0.4-0.4L506.6,423.3 M507.6,422.2l-0.4,0.4l2.1,2.1l0.4-0.4L507.6,422.2 M508.7,421.2l-0.4,0.4
	l2.1,2.1l0.4-0.4L508.7,421.2 M509.7,420.1l-0.4,0.4l2.1,2.1l0.4-0.4L509.7,420.1 M510.8,419l-0.4,0.4l2.1,2.1l0.4-0.4L510.8,419
	 M511.9,418l-0.4,0.4l2.1,2.1l0.4-0.4L511.9,418 M512.9,416.9l-0.4,0.4l2.1,2.1l0.4-0.4L512.9,416.9 M514,415.9l-0.4,0.4l2.1,2.1
	l0.4-0.4L514,415.9 M218.9,406.9v11.4h99.4v-11.4H218.9 M515.1,414.8l-0.4,0.4l2.1,2.1l0.4-0.4L515.1,414.8 M516.1,413.7l-0.4,0.4
	l2.1,2.1l0.4-0.4L516.1,413.7 M517.2,412.7l-0.4,0.4l2.1,2.1l0.4-0.4L517.2,412.7 M518.2,411.6l-0.4,0.4l2.1,2.1l0.4-0.4
	L518.2,411.6 M74,315.5h94.1c3.4,0,6.4-0.7,8.7-2.1c2.4-1.4,4.1-3.6,5-6.4c0.6-1.8,0.9-3.9,0.9-6.2v-55.4c0-3.4-0.7-6.3-2.1-8.7
	c-1.4-2.4-3.6-4.1-6.4-5c-1.8-0.6-3.9-1-6.2-1h-15.5c-0.1,0-0.1,0-0.2,0c-1.5,0-2.6,0-3.4-0.2c-0.8-0.2-1.3-0.4-2.1-1
	c-0.5-0.4-1.1-1-1.8-1.7v0l-4.7-5.2l0,0c-1.5-1.6-2.9-2.8-4.5-3.4c-1.7-0.7-3.6-0.8-6-0.8h-19.5c-2.5,0-4.4,0.2-6,0.8
	c-1.7,0.7-3.1,1.8-4.5,3.4l0,0l-4.7,5.2l0,0c-1,1.1-1.7,1.8-2.4,2.2c-0.7,0.4-1.3,0.6-2.4,0.7c-0.7,0.1-1.5,0.1-2.6,0.1
	c0,0,0,0-0.1,0H74c-3.5,0-6.4,0.7-8.8,2.2c-2.4,1.4-4,3.6-5,6.4c-0.6,1.8-0.9,3.9-0.9,6.1v55.4c0,3.4,0.7,6.4,2.1,8.7
	c1.4,2.4,3.6,4.1,6.3,5C69.6,315.2,71.7,315.5,74,315.5L74,315.5 M347.5,247.4v40.9h139.7v-41.9H347.5V247.4 M315.5,261.8V272
	l13.9-5.1L315.5,261.8 M519,265.4v3h0.6v-3H519 M517.5,265.4v3h0.6v-3H517.5 M516,265.4v3h0.6v-3H516 M514.5,265.4v3h0.6v-3H514.5
	 M512.9,265.4v3h0.6v-3H512.9 M511.4,265.4v3h0.6v-3H511.4 M509.9,265.4v3h0.6v-3H509.9 M508.4,265.4v3h0.6v-3H508.4 M506.9,265.4v3
	h0.6v-3H506.9 M505.4,265.4v3h0.6v-3H505.4 M503.9,265.4v3h0.6v-3H503.9 M502.3,265.4v3h0.6v-3H502.3 M500.8,265.4v3h0.6v-3H500.8
	 M314.4,265.4v3h0.6v-3H314.4 M312.9,265.4v3h0.6v-3H312.9 M311.4,265.4v3h0.6v-3H311.4 M309.9,265.4v3h0.6v-3H309.9 M308.4,265.4v3
	h0.6v-3H308.4 M306.8,265.4v3h0.6v-3H306.8 M305.3,265.4v3h0.6v-3H305.3 M303.8,265.4v3h0.6v-3H303.8 M302.3,265.4v3h0.6v-3H302.3
	 M300.8,265.4v3h0.6v-3H300.8 M299.3,265.4v3h0.6v-3H299.3 M297.8,265.4v3h0.6v-3H297.8 M296.3,265.4v3h0.6v-3H296.3 M294.8,265.4v3
	h0.6v-3H294.8 M293.3,265.4v3h0.6v-3H293.3 M291.8,265.4v3h0.6v-3H291.8 M290.3,265.4v3h0.6v-3H290.3 M288.7,265.4v3h0.6v-3H288.7
	 M287.2,265.4v3h0.6v-3H287.2 M285.7,265.4v3h0.6v-3H285.7 M284.2,265.4v3h0.6v-3H284.2 M282.7,265.4v3h0.6v-3H282.7 M281.2,265.4v3
	h0.6v-3H281.2 M279.7,265.4v3h0.6v-3H279.7 M278.2,265.4v3h0.6v-3H278.2 M276.7,265.4v3h0.6v-3H276.7 M275.2,265.4v3h0.6v-3H275.2
	 M273.7,265.4v3h0.6v-3H273.7 M272.2,265.4v3h0.6v-3H272.2 M270.6,265.4v3h0.6v-3H270.6 M269.1,265.4v3h0.6v-3H269.1 M267.6,265.4v3
	h0.6v-3H267.6 M266.1,265.4v3h0.6v-3H266.1 M264.6,265.4v3h0.6v-3H264.6 M263.1,265.4v3h0.6v-3H263.1 M261.6,265.4v3h0.6v-3H261.6
	 M260.1,265.4v3h0.6v-3H260.1 M258.6,265.4v3h0.6v-3H258.6 M257.1,265.4v3h0.6v-3H257.1 M255.6,265.4v3h0.6v-3H255.6 M254.1,265.4v3
	h0.6v-3H254.1 M252.5,265.4v3h0.6v-3H252.5 M251,265.4v3h0.6v-3H251 M249.5,265.4v3h0.6v-3H249.5 M248,265.4v3h0.6v-3H248
	 M246.5,265.4v3h0.6v-3H246.5 M245,265.4v3h0.6v-3H245 M243.5,265.4v3h0.6v-3H243.5 M242,265.4v3h0.6v-3H242 M240.5,265.4v3h0.6v-3
	H240.5 M239,265.4v3h0.6v-3H239 M237.5,265.4v3h0.6v-3H237.5 M236,265.4v3h0.6v-3H236 M234.4,265.4v3h0.6v-3H234.4 M232.9,265.4v3
	h0.6v-3H232.9 M231.4,265.4v3h0.6v-3H231.4 M229.9,265.4v3h0.6v-3H229.9 M228.4,265.4v3h0.6v-3H228.4 M226.9,265.4v3h0.6v-3H226.9
	 M225.4,265.4v3h0.6v-3H225.4 M223.9,265.4v3h0.6v-3H223.9 M222.4,265.4v3h0.6v-3H222.4 M220.9,265.4v3h0.6v-3H220.9 M219.4,265.4v3
	h0.6v-3H219.4 M217.9,265.4v3h0.6v-3H217.9 M216.3,265.4v3h0.6v-3H216.3 M214.8,265.4v3h0.6v-3H214.8 M228.7,246.1v10.8h77.6v-10.8
	H228.7 M104.3,145.6H116v21.5h4.3v-21.5h11.4l5.7,12.9h8.6l-17.2-38.7h-8.6l9.5,21.5h-9.5v-21.5H116v21.5h-9.7l9.7-21.5h-8.6
	L90,158.5h8.6L104.3,145.6 M519.9,118.8l-2.1,2.1l0.4,0.4l2.1-2.1L519.9,118.8 M518.9,117.8l-2.1,2.1l0.4,0.4l2.1-2.1L518.9,117.8
	 M68.5,55.2v64.5h99V55.2H68.5 M345.7,78.6v40.9h139.7V77.6H345.7V78.6 M517.8,116.7l-2.1,2.1l0.4,0.4l2.1-2.1L517.8,116.7
	 M516.7,115.7l-2.1,2.1l0.4,0.4l2.1-2.1L516.7,115.7 M515.7,114.6l-2.1,2.1l0.4,0.4l2.1-2.1L515.7,114.6 M514.6,113.5l-2.1,2.1
	l0.4,0.4l2.1-2.1L514.6,113.5 M513.5,112.5l-2.1,2.1l0.4,0.4l2.1-2.1L513.5,112.5 M512.5,111.4l-2.1,2.1l0.4,0.4l2.1-2.1
	L512.5,111.4 M511.4,110.3l-2.1,2.1l0.4,0.4l2.1-2.1L511.4,110.3 M510.4,109.3l-2.1,2.1l0.4,0.4l2.1-2.1L510.4,109.3 M509.3,108.2
	l-2.1,2.1l0.4,0.4l2.1-2.1L509.3,108.2 M508.2,107.2l-2.1,2.1l0.4,0.4l2.1-2.1L508.2,107.2 M507.2,106.1l-2.1,2.1l0.4,0.4l2.1-2.1
	L507.2,106.1 M506.1,105l-2.1,2.1l0.4,0.4l2.1-2.1L506.1,105 M505,104l-2.1,2.1l0.4,0.4l2.1-2.1L505,104 M504,102.9l-2.1,2.1
	l0.4,0.4l2.1-2.1L504,102.9 M502.9,101.8l-2.1,2.1l0.4,0.4l2.1-2.1L502.9,101.8 M501.8,100.8l-2.1,2.1l0.4,0.4l2.1-2.1L501.8,100.8
	 M313.7,93v10.1l13.9-5.1L313.7,93 M500.8,99.7l-2.1,2.1l0.4,0.4l2.1-2.1L500.8,99.7 M312.6,96.6v3h0.6v-3H312.6 M311.1,96.6v3h0.6
	v-3H311.1 M309.6,96.6v3h0.6v-3H309.6 M308,96.6v3h0.6v-3H308 M306.5,96.6v3h0.6v-3H306.5 M305,96.6v3h0.6v-3H305 M303.5,96.6v3h0.6
	v-3H303.5 M302,96.6v3h0.6v-3H302 M300.5,96.6v3h0.6v-3H300.5 M299,96.6v3h0.6v-3H299 M297.5,96.6v3h0.6v-3H297.5 M296,96.6v3h0.6
	v-3H296 M294.5,96.6v3h0.6v-3H294.5 M293,96.6v3h0.6v-3H293 M291.5,96.6v3h0.6v-3H291.5 M289.9,96.6v3h0.6v-3H289.9 M288.4,96.6v3
	h0.6v-3H288.4 M286.9,96.6v3h0.6v-3H286.9 M285.4,96.6v3h0.6v-3H285.4 M283.9,96.6v3h0.6v-3H283.9 M282.4,96.6v3h0.6v-3H282.4
	 M280.9,96.6v3h0.6v-3H280.9 M279.4,96.6v3h0.6v-3H279.4 M277.9,96.6v3h0.6v-3H277.9 M276.4,96.6v3h0.6v-3H276.4 M274.9,96.6v3h0.6
	v-3H274.9 M273.4,96.6v3h0.6v-3H273.4 M271.8,96.6v3h0.6v-3H271.8 M270.3,96.6v3h0.6v-3H270.3 M268.8,96.6v3h0.6v-3H268.8
	 M267.3,96.6v3h0.6v-3H267.3 M265.8,96.6v3h0.6v-3H265.8 M264.3,96.6v3h0.6v-3H264.3 M262.8,96.6v3h0.6v-3H262.8 M261.3,96.6v3h0.6
	v-3H261.3 M259.8,96.6v3h0.6v-3H259.8 M258.3,96.6v3h0.6v-3H258.3 M256.8,96.6v3h0.6v-3H256.8 M255.3,96.6v3h0.6v-3H255.3
	 M253.7,96.6v3h0.6v-3H253.7 M252.2,96.6v3h0.6v-3H252.2 M250.7,96.6v3h0.6v-3H250.7 M249.2,96.6v3h0.6v-3H249.2 M247.7,96.6v3h0.6
	v-3H247.7 M246.2,96.6v3h0.6v-3H246.2 M244.7,96.6v3h0.6v-3H244.7 M243.2,96.6v3h0.6v-3H243.2 M241.7,96.6v3h0.6v-3H241.7
	 M240.2,96.6v3h0.6v-3H240.2 M238.7,96.6v3h0.6v-3H238.7 M237.2,96.6v3h0.6v-3H237.2 M235.6,96.6v3h0.6v-3H235.6 M234.1,96.6v3h0.6
	v-3H234.1 M232.6,96.6v3h0.6v-3H232.6 M231.1,96.6v3h0.6v-3H231.1 M229.6,96.6v3h0.6v-3H229.6 M228.1,96.6v3h0.6v-3H228.1
	 M226.6,96.6v3h0.6v-3H226.6 M225.1,96.6v3h0.6v-3H225.1 M223.6,96.6v3h0.6v-3H223.6 M222.1,96.6v3h0.6v-3H222.1 M220.6,96.6v3h0.6
	v-3H220.6 M219.1,96.6v3h0.6v-3H219.1 M217.5,96.6v3h0.6v-3H217.5 M216,96.6v3h0.6v-3H216 M214.5,96.6v3h0.6v-3H214.5 M213,96.6v3
	h0.6v-3H213 M226.9,77.3v10.8h77.4V77.3H226.9 M68.5,42.3c-2.4,0-4.3,1.9-4.3,4.3s1.9,4.3,4.3,4.3h99c2.4,0,4.3-1.9,4.3-4.3
	c0-2.4-1.9-4.3-4.3-4.3h-45.1V38c0-2.4-1.9-4.3-4.3-4.3c-2.4,0-4.3,1.9-4.3,4.3v4.3H68.5 M349.5,446.9v-37.8h135.7v37.8H349.5
	 M372.9,416.6v21.1h88.8v-21.1H372.9 M167.9,310.5H74.1c-2.5,0-4.4-0.5-5.9-1.4c-1.5-0.9-2.5-2.2-3.2-4c-0.4-1.2-0.7-2.7-0.7-4.4
	v-55.1c0-2.6,0.5-4.6,1.5-6.1c0.9-1.5,2.3-2.5,4.1-3.1c1.2-0.4,2.6-0.6,4.3-0.6h13.7c1.8,0,3.3,0,4.7-0.3c1.4-0.3,2.6-0.8,3.7-1.6
	c0.8-0.6,1.5-1.2,2.3-2.1l0,0l4.7-5.2l0,0c1.1-1.2,1.9-1.9,2.6-2.4c0.7-0.4,1.4-0.6,2.4-0.8c0.6-0.1,1.4-0.1,2.3-0.1c0,0,0,0,0,0
	H130c0,0,0,0,0.1,0c1.3,0,2.3,0.1,3.1,0.2c0.8,0.2,1.5,0.5,2.3,1.1c0.5,0.4,1.1,1,1.9,1.8l0,0l4.7,5.2l0,0c0.8,0.8,1.5,1.5,2.3,2.1
	c0.8,0.6,1.6,1,2.4,1.2c1.7,0.6,3.6,0.6,6,0.6h15.2c2.5,0,4.5,0.5,6,1.4c1.5,0.9,2.6,2.2,3.2,4c0.4,1.2,0.7,2.7,0.7,4.4v55.1
	c0,2.5-0.5,4.5-1.5,6c-0.9,1.5-2.3,2.5-4.1,3.1C171,310.2,169.6,310.5,167.9,310.5 M121,301.4C121,301.4,121,301.4,121,301.4
	c8.4,0,16-3.4,21.5-8.9c5.5-5.5,8.9-13.1,8.9-21.6c0-8.4-3.4-16.1-8.8-21.6c-5.5-5.5-13.1-8.9-21.5-8.9c0,0,0,0,0,0
	c-8.4,0-16,3.4-21.5,8.9c-5.5,5.5-8.9,13.1-8.9,21.6c0,8.4,3.4,16.1,8.9,21.6C105,298,112.6,301.4,121,301.4L121,301.4 M158.7,258.1
	L158.7,258.1c3.3,0,6-2.7,6-6c0-1.7-0.7-3.2-1.8-4.3c-1.1-1.1-2.6-1.8-4.3-1.8c-3.3,0-6,2.7-6,6
	C152.7,255.4,155.4,258.1,158.7,258.1 M121,296.2c-6.9,0-13.2-2.8-17.8-7.4c-4.5-4.6-7.4-10.9-7.4-17.8c0-14,11.2-25.2,25.1-25.2
	c13.9,0,25.1,11.2,25.1,25.2c0,7-2.8,13.3-7.3,17.8C134.2,293.4,128,296.2,121,296.2L121,296.2 M349.5,286.2v-37.8h135.7v37.8H349.5
	 M360.3,256v21.1h114V256H360.3 M347.7,117.4V79.6h135.7v37.8L347.7,117.4 M358.8,87.2v26.2H473V87.2H358.8 M154.6,106.9h-21.5v-4.3
	h21.5V106.9 M128.8,106.9h-4.3v-4.3h4.3V106.9 M98.6,102.7c-9.5,0-17.2-7.7-17.2-17.2c0-9.5,7.7-17.3,17.2-17.3v17.3h17.2
	C115.8,95,108.1,102.7,98.6,102.7 M154.6,98.2h-21.5v-4.3h21.5V98.2 M128.8,98.2h-4.3v-4.3h4.3V98.2 M154.6,89.6h-21.5v-4.3h21.5
	V89.6 M128.8,89.6h-4.3v-4.3h4.3V89.6 M154.6,81h-21.5v-4.3h21.5V81 M128.8,81h-4.3v-4.3h4.3V81 M154.6,72.4h-21.5v-4.3h21.5V72.4
	 M128.8,72.4h-4.3v-4.3h4.3V72.4"/>
<path class="st6" d="M120.3,167.1H116v-21.5h-11.6l-5.8,12.9H90l17.4-38.7h8.6l-9.7,21.5h9.7v-21.5h4.3v21.5h9.5l-9.5-21.5h8.6
	l17.2,38.7h-8.6l-5.7-12.9h-11.4V167.1 M167.5,119.8h-99V55.2h99V119.8 M133.1,102.6v4.3h21.5v-4.3H133.1 M124.6,102.6v4.3h4.3v-4.3
	H124.6 M98.6,68.2c-9.5,0-17.2,7.7-17.2,17.3c0,9.5,7.7,17.2,17.2,17.2c9.5,0,17.2-7.7,17.2-17.2H98.6V68.2 M133.1,93.9v4.3h21.5
	v-4.3H133.1 M124.6,93.9v4.3h4.3v-4.3H124.6 M133.1,85.3v4.3h21.5v-4.3H133.1 M124.6,85.3v4.3h4.3v-4.3H124.6 M133.1,76.7V81h21.5
	v-4.3H133.1 M124.6,76.7V81h4.3v-4.3H124.6 M133.1,68.1v4.3h21.5v-4.3H133.1 M124.6,68.1v4.3h4.3v-4.3H124.6 M167.5,50.9h-99
	c-2.4,0-4.3-1.9-4.3-4.3s1.9-4.3,4.3-4.3h45.3V38c0-2.4,1.9-4.3,4.3-4.3c2.4,0,4.3,1.9,4.3,4.3v4.3h45.1c2.4,0,4.3,1.9,4.3,4.3
	C171.8,49,169.9,50.9,167.5,50.9"/>
<path class="st6" d="M313.1,99.6h-0.6v-3h0.6V99.6 M311.6,99.6h-0.6v-3h0.6V99.6 M310.1,99.6h-0.6v-3h0.6V99.6 M308.6,99.6H308v-3
	h0.6V99.6 M307.1,99.6h-0.6v-3h0.6V99.6 M305.6,99.6H305v-3h0.6V99.6 M304.1,99.6h-0.6v-3h0.6V99.6 M302.6,99.6H302v-3h0.6V99.6
	 M301.1,99.6h-0.6v-3h0.6V99.6 M299.6,99.6H299v-3h0.6V99.6 M298,99.6h-0.6v-3h0.6V99.6 M296.5,99.6H296v-3h0.6V99.6 M295,99.6h-0.6
	v-3h0.6V99.6 M293.5,99.6H293v-3h0.6V99.6 M292,99.6h-0.6v-3h0.6V99.6 M290.5,99.6h-0.6v-3h0.6V99.6 M289,99.6h-0.6v-3h0.6V99.6
	 M287.5,99.6h-0.6v-3h0.6V99.6 M286,99.6h-0.6v-3h0.6V99.6 M284.5,99.6h-0.6v-3h0.6V99.6 M283,99.6h-0.6v-3h0.6V99.6 M281.5,99.6
	h-0.6v-3h0.6V99.6 M279.9,99.6h-0.6v-3h0.6V99.6 M278.4,99.6h-0.6v-3h0.6V99.6 M276.9,99.6h-0.6v-3h0.6V99.6 M275.4,99.6h-0.6v-3
	h0.6V99.6 M273.9,99.6h-0.6v-3h0.6V99.6 M272.4,99.6h-0.6v-3h0.6V99.6 M270.9,99.6h-0.6v-3h0.6V99.6 M269.4,99.6h-0.6v-3h0.6V99.6
	 M267.9,99.6h-0.6v-3h0.6V99.6 M266.4,99.6h-0.6v-3h0.6V99.6 M264.9,99.6h-0.6v-3h0.6V99.6 M263.4,99.6h-0.6v-3h0.6V99.6
	 M261.8,99.6h-0.6v-3h0.6V99.6 M260.3,99.6h-0.6v-3h0.6V99.6 M258.8,99.6h-0.6v-3h0.6V99.6 M257.3,99.6h-0.6v-3h0.6V99.6
	 M255.8,99.6h-0.6v-3h0.6V99.6 M254.3,99.6h-0.6v-3h0.6V99.6 M252.8,99.6h-0.6v-3h0.6V99.6 M251.3,99.6h-0.6v-3h0.6V99.6
	 M249.8,99.6h-0.6v-3h0.6V99.6 M248.3,99.6h-0.6v-3h0.6V99.6 M246.8,99.6h-0.6v-3h0.6V99.6 M245.3,99.6h-0.6v-3h0.6V99.6
	 M243.7,99.6h-0.6v-3h0.6V99.6 M242.2,99.6h-0.6v-3h0.6V99.6 M240.7,99.6h-0.6v-3h0.6V99.6 M239.2,99.6h-0.6v-3h0.6V99.6
	 M237.7,99.6h-0.6v-3h0.6V99.6 M236.2,99.6h-0.6v-3h0.6V99.6 M234.7,99.6h-0.6v-3h0.6V99.6 M233.2,99.6h-0.6v-3h0.6V99.6
	 M231.7,99.6h-0.6v-3h0.6V99.6 M230.2,99.6h-0.6v-3h0.6V99.6 M228.7,99.6h-0.6v-3h0.6V99.6 M227.2,99.6h-0.6v-3h0.6V99.6
	 M225.6,99.6h-0.6v-3h0.6V99.6 M224.1,99.6h-0.6v-3h0.6V99.6 M222.6,99.6h-0.6v-3h0.6V99.6 M221.1,99.6h-0.6v-3h0.6V99.6
	 M219.6,99.6h-0.6v-3h0.6V99.6 M218.1,99.6h-0.6v-3h0.6V99.6 M216.6,99.6H216v-3h0.6V99.6 M215.1,99.6h-0.6v-3h0.6V99.6 M213.6,99.6
	H213v-3h0.6V99.6"/>
<path class="st6" d="M313.7,103.2V93l13.9,5.1L313.7,103.2 M318.6,96.6v3h0.6v-3H318.6 M317.1,96.6v3h0.6v-3H317.1 M315.6,96.6v3
	h0.6v-3H315.6 M314.1,96.6v3h0.6v-3H314.1"/>
<path class="st6" d="M319.2,99.6h-0.6v-3h0.6V99.6 M317.7,99.6h-0.6v-3h0.6V99.6 M316.1,99.6h-0.6v-3h0.6V99.6 M314.6,99.6h-0.6v-3
	h0.6V99.6"/>
<rect x="226.9" y="77.3" class="st5" width="77.4" height="10.8"/>
<g>
	<defs>
		<polyline id="SVGID_1_" points="304.4,88.1 226.9,88.1 226.9,77.3 304.4,77.3 304.4,88.1 		"/>
	</defs>
	<clipPath id="SVGID_00000052097790221927733610000002012112000820261567_">
		<use xlink:href="#SVGID_1_"  style="overflow:visible;"/>
	</clipPath>
	<g style="clip-path:url(#SVGID_00000052097790221927733610000002012112000820261567_);">
		<text transform="matrix(1 0 0 1 225.8281 86.4092)" class="st6 st0 st1">/</text>
	</g>
</g>
<text transform="matrix(1 0 0 1 233.0312 86.4092)" class="st6 st0 st1">dev</text>
<g>
	<defs>
		<polyline id="SVGID_00000130640729703027265630000008581789363371310002_" points="304.4,88.1 226.9,88.1 226.9,77.3 304.4,77.3 
			304.4,88.1 		"/>
	</defs>
	<clipPath id="SVGID_00000130637894073571052760000000581907783169099695_">
		<use xlink:href="#SVGID_00000130640729703027265630000008581789363371310002_"  style="overflow:visible;"/>
	</clipPath>
	<g style="clip-path:url(#SVGID_00000130637894073571052760000000581907783169099695_);">
		<text transform="matrix(1 0 0 1 254.625 86.4092)" class="st6 st0 st1">/</text>
	</g>
</g>
<text transform="matrix(1 0 0 1 261.8281 86.4092)" class="st6 st0 st1">video</text>
<g>
	<defs>
		<polyline id="SVGID_00000037651837099365798520000000654041342550052784_" points="304.4,88.1 226.9,88.1 226.9,77.3 304.4,77.3 
			304.4,88.1 		"/>
	</defs>
	<clipPath id="SVGID_00000151501223432142507820000017205001145506468024_">
		<use xlink:href="#SVGID_00000037651837099365798520000000654041342550052784_"  style="overflow:visible;"/>
	</clipPath>
	<g style="clip-path:url(#SVGID_00000151501223432142507820000017205001145506468024_);">
		<text transform="matrix(1 0 0 1 297.8281 86.4092)" class="st6 st0 st1">0</text>
	</g>
</g>
<rect x="358.8" y="87.2" class="st5" width="114.3" height="26.2"/>
<g>
	<defs>
		<polyline id="SVGID_00000008108839347428856050000009738712752842409103_" points="473,113.4 358.8,113.4 358.8,87.2 473,87.2 
			473,113.4 		"/>
	</defs>
	<clipPath id="SVGID_00000016054829861960392130000015584563287455313087_">
		<use xlink:href="#SVGID_00000008108839347428856050000009738712752842409103_"  style="overflow:visible;"/>
	</clipPath>
	<g style="clip-path:url(#SVGID_00000016054829861960392130000015584563287455313087_);">
		<text transform="matrix(1 0 0 1 356.9609 107.8701)" class="st6 st2 st3">p</text>
	</g>
</g>
<text transform="matrix(1 0 0 1 374.6797 107.8701)" class="st6 st2 st3">r</text>
<text transform="matrix(1 0 0 1 384.3672 107.8701)" class="st6 st2 st3">esent</text>
<g>
	<defs>
		<polyline id="SVGID_00000065042334143751492460000005339919527588590520_" points="473,113.4 358.8,113.4 358.8,87.2 473,87.2 
			473,113.4 		"/>
	</defs>
	<clipPath id="SVGID_00000154423167509196018330000007216685510477228980_">
		<use xlink:href="#SVGID_00000065042334143751492460000005339919527588590520_"  style="overflow:visible;"/>
	</clipPath>
	<g style="clip-path:url(#SVGID_00000154423167509196018330000007216685510477228980_);">
		<text transform="matrix(1 0 0 1 457.9609 107.8701)" class="st6 st2 st3">0</text>
	</g>
</g>
<path class="st6" d="M485.4,119.4H345.7V78.6v-1h139.7V119.4 M347.7,79.6v37.9l135.7,0V79.6H347.7 M346.7,78.6v1V78.6"/>
<path class="st6" d="M314.9,268.4h-0.6v-3h0.6V268.4 M313.4,268.4h-0.6v-3h0.6V268.4 M311.9,268.4h-0.6v-3h0.6V268.4 M310.4,268.4
	h-0.6v-3h0.6V268.4 M308.9,268.4h-0.6v-3h0.6V268.4 M307.4,268.4h-0.6v-3h0.6V268.4 M305.9,268.4h-0.6v-3h0.6V268.4 M304.4,268.4
	h-0.6v-3h0.6V268.4 M302.9,268.4h-0.6v-3h0.6V268.4 M301.4,268.4h-0.6v-3h0.6V268.4 M299.9,268.4h-0.6v-3h0.6V268.4 M298.4,268.4
	h-0.6v-3h0.6V268.4 M296.8,268.4h-0.6v-3h0.6V268.4 M295.3,268.4h-0.6v-3h0.6V268.4 M293.8,268.4h-0.6v-3h0.6V268.4 M292.3,268.4
	h-0.6v-3h0.6V268.4 M290.8,268.4h-0.6v-3h0.6V268.4 M289.3,268.4h-0.6v-3h0.6V268.4 M287.8,268.4h-0.6v-3h0.6V268.4 M286.3,268.4
	h-0.6v-3h0.6V268.4 M284.8,268.4h-0.6v-3h0.6V268.4 M283.3,268.4h-0.6v-3h0.6V268.4 M281.8,268.4h-0.6v-3h0.6V268.4 M280.3,268.4
	h-0.6v-3h0.6V268.4 M278.7,268.4h-0.6v-3h0.6V268.4 M277.2,268.4h-0.6v-3h0.6V268.4 M275.7,268.4h-0.6v-3h0.6V268.4 M274.2,268.4
	h-0.6v-3h0.6V268.4 M272.7,268.4h-0.6v-3h0.6V268.4 M271.2,268.4h-0.6v-3h0.6V268.4 M269.7,268.4h-0.6v-3h0.6V268.4 M268.2,268.4
	h-0.6v-3h0.6V268.4 M266.7,268.4h-0.6v-3h0.6V268.4 M265.2,268.4h-0.6v-3h0.6V268.4 M263.7,268.4h-0.6v-3h0.6V268.4 M262.2,268.4
	h-0.6v-3h0.6V268.4 M260.6,268.4h-0.6v-3h0.6V268.4 M259.1,268.4h-0.6v-3h0.6V268.4 M257.6,268.4h-0.6v-3h0.6V268.4 M256.1,268.4
	h-0.6v-3h0.6V268.4 M254.6,268.4h-0.6v-3h0.6V268.4 M253.1,268.4h-0.6v-3h0.6V268.4 M251.6,268.4H251v-3h0.6V268.4 M250.1,268.4
	h-0.6v-3h0.6V268.4 M248.6,268.4H248v-3h0.6V268.4 M247.1,268.4h-0.6v-3h0.6V268.4 M245.6,268.4H245v-3h0.6V268.4 M244.1,268.4h-0.6
	v-3h0.6V268.4 M242.5,268.4H242v-3h0.6V268.4 M241,268.4h-0.6v-3h0.6V268.4 M239.5,268.4H239v-3h0.6V268.4 M238,268.4h-0.6v-3h0.6
	V268.4 M236.5,268.4H236v-3h0.6V268.4 M235,268.4h-0.6v-3h0.6V268.4 M233.5,268.4h-0.6v-3h0.6V268.4 M232,268.4h-0.6v-3h0.6V268.4
	 M230.5,268.4h-0.6v-3h0.6V268.4 M229,268.4h-0.6v-3h0.6V268.4 M227.5,268.4h-0.6v-3h0.6V268.4 M226,268.4h-0.6v-3h0.6V268.4
	 M224.4,268.4h-0.6v-3h0.6V268.4 M222.9,268.4h-0.6v-3h0.6V268.4 M221.4,268.4h-0.6v-3h0.6V268.4 M219.9,268.4h-0.6v-3h0.6V268.4
	 M218.4,268.4h-0.6v-3h0.6V268.4 M216.9,268.4h-0.6v-3h0.6V268.4 M215.4,268.4h-0.6v-3h0.6V268.4"/>
<path class="st6" d="M315.5,272v-10.1l13.9,5.1L315.5,272 M320.4,265.4v3h0.6v-3H320.4 M318.9,265.4v3h0.6v-3H318.9 M317.4,265.4v3
	h0.6v-3H317.4 M315.9,265.4v3h0.6v-3H315.9"/>
<path class="st6" d="M321,268.4h-0.6v-3h0.6V268.4 M319.5,268.4h-0.6v-3h0.6V268.4 M318,268.4h-0.6v-3h0.6V268.4 M316.5,268.4h-0.6
	v-3h0.6V268.4"/>
<rect x="228.7" y="246.1" class="st5" width="77.6" height="10.8"/>
<g>
	<defs>
		<polyline id="SVGID_00000047032509374297341850000003824500577385486465_" points="306.3,256.9 228.7,256.9 228.7,246.1 
			306.3,246.1 306.3,256.9 		"/>
	</defs>
	<clipPath id="SVGID_00000031198742865626814190000014629195235355773367_">
		<use xlink:href="#SVGID_00000047032509374297341850000003824500577385486465_"  style="overflow:visible;"/>
	</clipPath>
	<g style="clip-path:url(#SVGID_00000031198742865626814190000014629195235355773367_);">
		<text transform="matrix(1 0 0 1 227.6406 255.2061)" class="st6 st0 st1">/</text>
	</g>
</g>
<text transform="matrix(1 0 0 1 234.8359 255.2061)" class="st6 st0 st1">dev</text>
<g>
	<defs>
		<polyline id="SVGID_00000005977955174711398630000013604030065505815462_" points="306.3,256.9 228.7,256.9 228.7,246.1 
			306.3,246.1 306.3,256.9 		"/>
	</defs>
	<clipPath id="SVGID_00000178174006595786753810000018114301399049134270_">
		<use xlink:href="#SVGID_00000005977955174711398630000013604030065505815462_"  style="overflow:visible;"/>
	</clipPath>
	<g style="clip-path:url(#SVGID_00000178174006595786753810000018114301399049134270_);">
		<text transform="matrix(1 0 0 1 256.4375 255.2061)" class="st6 st0 st1">/</text>
	</g>
</g>
<text transform="matrix(1 0 0 1 263.6406 255.2061)" class="st6 st0 st1">video</text>
<g>
	<defs>
		<polyline id="SVGID_00000042730631241931277400000007413837640538601876_" points="306.3,256.9 228.7,256.9 228.7,246.1 
			306.3,246.1 306.3,256.9 		"/>
	</defs>
	<clipPath id="SVGID_00000164505092352921133990000004001020874452446619_">
		<use xlink:href="#SVGID_00000042730631241931277400000007413837640538601876_"  style="overflow:visible;"/>
	</clipPath>
	<g style="clip-path:url(#SVGID_00000164505092352921133990000004001020874452446619_);">
		<text transform="matrix(1 0 0 1 299.6406 255.2061)" class="st6 st0 st1">1</text>
	</g>
</g>
<rect x="360.3" y="256" class="st5" width="114" height="21.1"/>
<g>
	<defs>
		<polyline id="SVGID_00000142885580074425777830000013593721910695816598_" points="474.3,277.1 360.3,277.1 360.3,256 474.3,256 
			474.3,277.1 		"/>
	</defs>
	<clipPath id="SVGID_00000096042302304057811540000002052400127593052304_">
		<use xlink:href="#SVGID_00000142885580074425777830000013593721910695816598_"  style="overflow:visible;"/>
	</clipPath>
	<g style="clip-path:url(#SVGID_00000096042302304057811540000002052400127593052304_);">
		<text transform="matrix(1 0 0 1 359.3047 276.6748)" class="st6 st2 st3">ca</text>
	</g>
</g>
<text transform="matrix(1 0 0 1 391.5547 276.6748)" class="st6 st2 st3">m</text>
<g>
	<defs>
		<polyline id="SVGID_00000067222386233985676010000014200159365304631977_" points="474.3,277.1 360.3,277.1 360.3,256 474.3,256 
			474.3,277.1 		"/>
	</defs>
	<clipPath id="SVGID_00000049180077655424396710000012819227552473194943_">
		<use xlink:href="#SVGID_00000067222386233985676010000014200159365304631977_"  style="overflow:visible;"/>
	</clipPath>
	<g style="clip-path:url(#SVGID_00000049180077655424396710000012819227552473194943_);">
		<text transform="matrix(1 0 0 1 416.7891 276.6748)" class="st6 st2 st3">e</text>
	</g>
</g>
<text transform="matrix(1 0 0 1 432.9062 276.6748)" class="st6 st2 st3">r</text>
<g>
	<defs>
		<polyline id="SVGID_00000064353883430551436630000009716888671935167664_" points="474.3,277.1 360.3,277.1 360.3,256 474.3,256 
			474.3,277.1 		"/>
	</defs>
	<clipPath id="SVGID_00000158017136996376139660000011758559934896944309_">
		<use xlink:href="#SVGID_00000064353883430551436630000009716888671935167664_"  style="overflow:visible;"/>
	</clipPath>
	<g style="clip-path:url(#SVGID_00000158017136996376139660000011758559934896944309_);">
		<text transform="matrix(1 0 0 1 443.1172 276.6748)" class="st6 st2 st3">a0</text>
	</g>
</g>
<path class="st6" d="M487.2,288.2H347.5v-40.9v-1h139.7V288.2 M349.5,248.4v37.8h135.7v-37.8H349.5 M348.5,247.4v1V247.4"/>
<path class="st6" d="M168.1,313C168.1,313,168.1,313,168.1,313H74c-3.1,0-5.6-0.6-7.5-1.8c-1.9-1.2-3.2-2.8-4-5.1
	c-0.5-1.5-0.8-3.3-0.8-5.4v-55.4c0-3.1,0.6-5.6,1.8-7.4c1.1-1.9,2.8-3.2,5.1-4c1.5-0.5,3.3-0.8,5.4-0.8c0,0,0,0,0,0h13.8
	c1.6,0,2.9,0,4.1-0.3c1.2-0.2,2.2-0.7,3.2-1.5c0.7-0.5,1.3-1.2,2-2l0,0l4.7-5.2c1.4-1.5,2.4-2.3,3.6-2.8c1.2-0.5,2.7-0.7,5.1-0.7
	c0,0,0,0,0,0h19.5c0,0,0,0,0,0c2.4,0,3.9,0.2,5.1,0.7c1.2,0.5,2.3,1.3,3.6,2.8l0,0l4.7,5.2l0,0c1.1,1.2,2,2.1,3,2.7
	c1,0.6,2.1,0.9,3.3,0.9c0.8,0.1,1.7,0.1,2.8,0.1h15.5c3.1,0,5.6,0.6,7.5,1.8c1.9,1.2,3.2,2.8,4,5.1c0.5,1.5,0.8,3.3,0.8,5.4v55.4
	c0,3.1-0.6,5.6-1.8,7.4c-1.1,1.9-2.8,3.2-5.1,4C172,312.7,170.2,313,168.1,313 M74.1,312.9h93.8c2.8,0,5.2-0.6,7.2-1.7
	c2-1.2,3.4-3,4.3-5.3c0.5-1.5,0.8-3.3,0.8-5.2v-55.1c0-2.9-0.6-5.4-1.8-7.3c-1.2-2-3.1-3.4-5.4-4.2c-1.5-0.5-3.2-0.8-5.1-0.8h-15.2
	c0,0,0,0-0.1,0c-1.8,0-3.1-0.1-4.2-0.3c-1.1-0.2-1.9-0.5-2.8-1.2c-0.6-0.4-1.2-1-1.9-1.7l0,0l-4.7-5.2c-0.8-0.9-1.5-1.5-2.2-2.1
	c-0.7-0.6-1.4-1-2.1-1.3c-1.5-0.6-3-0.7-4.9-0.7h-19.6c-1.4,0-2.6,0-3.7,0.3c-1.1,0.3-2.2,0.8-3.2,1.6c-0.7,0.6-1.4,1.2-2.1,2.1l0,0
	l-4.7,5.2c-0.7,0.8-1.3,1.3-1.9,1.7c-0.6,0.4-1.1,0.7-1.8,0.9c-1.2,0.4-2.8,0.5-5.1,0.5c0,0-0.1,0-0.1,0H74.1
	c-2.8,0-5.2,0.6-7.2,1.8c-2,1.2-3.4,3-4.2,5.3c-0.5,1.5-0.8,3.3-0.8,5.2v55.1c0,2.9,0.6,5.3,1.8,7.3c1.2,2,3.1,3.4,5.3,4.1
	C70.6,312.7,72.3,312.9,74.1,312.9L74.1,312.9 M121,299c-15.5,0-28-12.4-28-28c0-15.6,12.5-28,28-28c15.6,0,27.9,12.4,27.9,28
	C148.9,286.6,136.5,299,121,299L121,299 M121,298.7C121,298.7,121,298.7,121,298.7c7.6,0,14.5-3.1,19.5-8.1c5-5,8-11.9,8-19.6
	c0-7.7-3.1-14.6-8-19.6c-5-5-11.9-8.1-19.5-8.1c0,0,0,0,0,0c-7.6,0-14.5,3.1-19.5,8.1c-5,5-8.1,11.9-8.1,19.6
	c0,7.6,3.1,14.6,8.1,19.6C106.5,295.6,113.4,298.7,121,298.7L121,298.7 M158.7,255.6c-1,0-1.9-0.4-2.5-1c-0.6-0.6-1-1.5-1-2.5
	c0-1,0.4-1.9,1-2.6c0.6-0.7,1.5-1,2.5-1c2,0,3.6,1.6,3.6,3.6c0,1-0.4,1.9-1,2.5C160.6,255.2,159.7,255.6,158.7,255.6L158.7,255.6"/>
<path class="st6" d="M168.1,315.5H74c-2.3,0-4.4-0.3-6.2-0.9c-2.7-0.9-4.9-2.7-6.3-5c-1.4-2.4-2.1-5.3-2.1-8.7v-55.4
	c0-2.3,0.3-4.3,0.9-6.1c0.9-2.7,2.6-4.9,5-6.4c2.3-1.5,5.3-2.2,8.8-2.2h13.8c0,0,0,0,0.1,0c1.1,0,1.9,0,2.6-0.1
	c1.1-0.1,1.7-0.3,2.4-0.7c0.7-0.4,1.4-1,2.4-2.2l0,0l4.7-5.2l0,0c1.5-1.6,2.9-2.8,4.5-3.4c1.7-0.7,3.6-0.8,6-0.8h19.5
	c2.5,0,4.4,0.2,6,0.8c1.7,0.7,3.1,1.8,4.5,3.4l0,0l4.7,5.2v0c0.7,0.8,1.3,1.3,1.8,1.7c0.7,0.6,1.3,0.8,2.1,1
	c0.8,0.2,1.8,0.2,3.4,0.2c0.1,0,0.1,0,0.2,0h15.5c2.3,0,4.4,0.3,6.2,1c2.7,1,4.9,2.7,6.4,5c1.4,2.4,2.1,5.3,2.1,8.7v55.4
	c0,2.3-0.3,4.3-0.9,6.2c-0.9,2.7-2.6,4.9-5,6.4C174.5,314.8,171.5,315.5,168.1,315.5 M74,313h94.1c0,0,0,0,0,0
	c2.1,0,3.9-0.3,5.4-0.8c2.3-0.8,3.9-2.1,5.1-4c1.1-1.9,1.8-4.3,1.8-7.4v-55.4c0-2.1-0.3-3.8-0.8-5.4c-0.8-2.3-2.1-3.9-4-5.1
	c-1.9-1.2-4.3-1.8-7.5-1.8h-15.5c-1.1,0-2,0-2.8-0.1c-1.2-0.1-2.3-0.3-3.3-0.9c-1-0.6-1.9-1.5-3-2.7l0,0l-4.7-5.2l0,0
	c-1.4-1.5-2.4-2.3-3.6-2.8c-1.2-0.5-2.7-0.7-5.1-0.7c0,0,0,0,0,0h-19.5c0,0,0,0,0,0c-2.4,0-3.9,0.2-5.1,0.7
	c-1.2,0.5-2.3,1.3-3.6,2.8l-4.7,5.2l0,0c-0.7,0.8-1.4,1.4-2,2c-1,0.8-2,1.3-3.2,1.5c-1.2,0.2-2.4,0.3-4.1,0.3H74c0,0,0,0,0,0
	c-2.1,0-3.9,0.3-5.4,0.8c-2.3,0.8-3.9,2.1-5.1,4c-1.1,1.9-1.8,4.3-1.8,7.4v55.4c0,2.1,0.3,3.9,0.8,5.4c0.8,2.3,2.1,3.9,4,5.1
	C68.4,312.4,70.9,313,74,313L74,313 M167.9,312.9H74.1c-1.9,0-3.5-0.2-5.1-0.8c-2.3-0.8-4.1-2.2-5.3-4.1c-1.2-2-1.8-4.4-1.8-7.3
	v-55.1c0-1.9,0.3-3.7,0.8-5.2c0.8-2.3,2.3-4.1,4.2-5.3c2-1.2,4.4-1.8,7.2-1.8h13.7c0,0,0.1,0,0.1,0c2.3,0,3.9-0.1,5.1-0.5
	c0.6-0.2,1.2-0.5,1.8-0.9c0.6-0.4,1.2-1,1.9-1.7l4.7-5.2l0,0c0.8-0.9,1.4-1.5,2.1-2.1c1-0.8,2.1-1.4,3.2-1.6
	c1.1-0.3,2.3-0.3,3.7-0.3H130c1.9,0,3.4,0.1,4.9,0.7c0.7,0.3,1.4,0.7,2.1,1.3c0.7,0.6,1.4,1.2,2.2,2.1l4.7,5.2l0,0
	c0.7,0.8,1.3,1.3,1.9,1.7c0.9,0.6,1.7,1,2.8,1.2c1.1,0.2,2.4,0.3,4.2,0.3c0,0,0,0,0.1,0h15.2c1.9,0,3.6,0.2,5.1,0.8
	c2.3,0.8,4.1,2.2,5.4,4.2c1.2,2,1.8,4.4,1.8,7.3v55.1c0,1.9-0.3,3.7-0.8,5.2c-0.8,2.3-2.3,4.1-4.3,5.3
	C173.2,312.3,170.7,312.9,167.9,312.9 M74.1,310.5h93.8c1.6,0,3.1-0.2,4.3-0.6c1.8-0.6,3.1-1.7,4.1-3.1c0.9-1.5,1.5-3.5,1.5-6v-55.1
	c0-1.7-0.2-3.2-0.7-4.4c-0.7-1.8-1.7-3.1-3.2-4c-1.5-0.9-3.5-1.4-6-1.4h-15.2c-2.4,0-4.3-0.1-6-0.6c-0.9-0.3-1.7-0.7-2.4-1.2
	c-0.8-0.5-1.5-1.2-2.3-2.1l0,0l-4.7-5.2l0,0c-0.7-0.8-1.3-1.4-1.9-1.8c-0.8-0.6-1.5-1-2.3-1.1c-0.8-0.2-1.8-0.2-3.1-0.2
	c0,0,0,0-0.1,0h-19.6c0,0,0,0,0,0c-0.9,0-1.6,0-2.3,0.1c-1,0.1-1.6,0.3-2.4,0.8c-0.7,0.4-1.6,1.2-2.6,2.4l0,0l-4.7,5.2l0,0
	c-0.8,0.8-1.5,1.5-2.3,2.1c-1.1,0.8-2.4,1.3-3.7,1.6c-1.4,0.3-2.8,0.3-4.7,0.3H74.1c-1.6,0-3.1,0.2-4.3,0.6
	c-1.8,0.6-3.1,1.7-4.1,3.1c-0.9,1.5-1.5,3.5-1.5,6.1v55.1c0,1.7,0.2,3.1,0.7,4.4c0.7,1.8,1.7,3.1,3.2,4
	C69.7,310,71.7,310.5,74.1,310.5L74.1,310.5 M121,301.4C121,301.4,121,301.4,121,301.4L121,301.4c-8.4,0-16-3.4-21.5-8.9
	c-5.5-5.5-8.9-13.1-8.9-21.6c0-8.4,3.4-16.1,8.9-21.6c5.5-5.5,13.1-8.9,21.5-8.9c0,0,0,0,0,0c8.4,0,16,3.4,21.5,8.9
	c5.5,5.5,8.8,13.1,8.8,21.6c0,8.4-3.4,16.1-8.9,21.6C137,298,129.4,301.4,121,301.4 M121,243c-15.5,0-28,12.4-28,28
	c0,15.6,12.5,28,28,28l0,0c15.4,0,27.9-12.4,27.9-28C148.9,255.4,136.6,243,121,243 M121,298.7C121,298.7,121,298.7,121,298.7
	L121,298.7c-7.6,0-14.5-3.1-19.5-8.1c-5-5-8.1-11.9-8.1-19.6c0-7.7,3.1-14.6,8.1-19.6c5-5,11.9-8.1,19.5-8.1c0,0,0,0,0,0
	c7.6,0,14.5,3.1,19.5,8.1c5,5,8,11.9,8,19.6c0,7.6-3.1,14.6-8,19.6C135.5,295.6,128.7,298.7,121,298.7 M121,245.8
	c-13.9,0-25.1,11.2-25.1,25.2c0,7,2.8,13.3,7.4,17.8c4.6,4.6,10.8,7.4,17.8,7.4l0,0c6.9,0,13.2-2.8,17.7-7.4
	c4.5-4.6,7.3-10.9,7.3-17.8C146.1,257,134.9,245.8,121,245.8 M158.7,258.1L158.7,258.1c-3.3,0-6-2.7-6-6c0-3.3,2.7-6,6-6
	c1.7,0,3.2,0.7,4.3,1.8c1.1,1.1,1.8,2.6,1.8,4.3C164.7,255.4,162,258.1,158.7,258.1 M158.7,248.5c-1,0-1.9,0.4-2.5,1
	c-0.6,0.7-1,1.5-1,2.6c0,1,0.4,1.9,1,2.5c0.6,0.6,1.5,1,2.5,1l0,0c1,0,1.9-0.4,2.6-1c0.7-0.6,1-1.5,1-2.5
	C162.2,250.1,160.7,248.5,158.7,248.5"/>
<path class="st6" d="M521,124.2L521,124.2L521,124.2L521,124.2 M520.3,123.5l-0.4-0.4l1.1-1.1v0.8L520.3,123.5 M519.3,122.4
	l-0.4-0.4l2.1-2.1l0,0v0.8L519.3,122.4 M518.2,121.4l-0.4-0.4l2.1-2.1l0.4,0.4L518.2,121.4 M517.1,120.3l-0.4-0.4l2.1-2.1l0.4,0.4
	L517.1,120.3 M516.1,119.2l-0.4-0.4l2.1-2.1l0.4,0.4L516.1,119.2 M515,118.2l-0.4-0.4l2.1-2.1l0.4,0.4L515,118.2 M513.9,117.1
	l-0.4-0.4l2.1-2.1l0.4,0.4L513.9,117.1 M512.9,116.1l-0.4-0.4l2.1-2.1l0.4,0.4L512.9,116.1 M511.8,115l-0.4-0.4l2.1-2.1l0.4,0.4
	L511.8,115 M510.8,113.9l-0.4-0.4l2.1-2.1l0.4,0.4L510.8,113.9 M509.7,112.9l-0.4-0.4l2.1-2.1l0.4,0.4L509.7,112.9 M508.6,111.8
	l-0.4-0.4l2.1-2.1l0.4,0.4L508.6,111.8 M507.6,110.7l-0.4-0.4l2.1-2.1l0.4,0.4L507.6,110.7 M506.5,109.7l-0.4-0.4l2.1-2.1l0.4,0.4
	L506.5,109.7 M505.4,108.6l-0.4-0.4l2.1-2.1l0.4,0.4L505.4,108.6 M504.4,107.5l-0.4-0.4l2.1-2.1l0.4,0.4L504.4,107.5 M503.3,106.5
	l-0.4-0.4l2.1-2.1l0.4,0.4L503.3,106.5 M502.2,105.4l-0.4-0.4l2.1-2.1l0.4,0.4L502.2,105.4 M501.2,104.4l-0.4-0.4l2.1-2.1l0.4,0.4
	L501.2,104.4 M500.1,103.3l-0.4-0.4l2.1-2.1l0.4,0.4L500.1,103.3 M499.1,102.2l-0.4-0.4l2.1-2.1l0.4,0.4L499.1,102.2"/>
<path class="st6" d="M503,431.1l-2.1-2.1l0.4-0.4l2.1,2.1L503,431.1 M504,430.1l-2.1-2.1l0.4-0.4l2.1,2.1L504,430.1 M505.1,429
	l-2.1-2.1l0.4-0.4l2.1,2.1L505.1,429 M506.1,427.9l-2.1-2.1l0.4-0.4l2.1,2.1L506.1,427.9 M507.2,426.9l-2.1-2.1l0.4-0.4l2.1,2.1
	L507.2,426.9 M508.3,425.8l-2.1-2.1l0.4-0.4l2.1,2.1L508.3,425.8 M509.3,424.8l-2.1-2.1l0.4-0.4l2.1,2.1L509.3,424.8 M510.4,423.7
	l-2.1-2.1l0.4-0.4l2.1,2.1L510.4,423.7 M511.5,422.6l-2.1-2.1l0.4-0.4l2.1,2.1L511.5,422.6 M512.5,421.6l-2.1-2.1l0.4-0.4l2.1,2.1
	L512.5,421.6 M513.6,420.5l-2.1-2.1l0.4-0.4l2.1,2.1L513.6,420.5 M514.7,419.4l-2.1-2.1l0.4-0.4l2.1,2.1L514.7,419.4 M515.7,418.4
	l-2.1-2.1l0.4-0.4l2.1,2.1L515.7,418.4 M516.8,417.3l-2.1-2.1l0.4-0.4l2.1,2.1L516.8,417.3 M517.8,416.2l-2.1-2.1l0.4-0.4l2.1,2.1
	L517.8,416.2 M518.9,415.2l-2.1-2.1l0.4-0.4l2.1,2.1L518.9,415.2 M520,414.1l-2.1-2.1l0.4-0.4l2.1,2.1L520,414.1 M521,413l-2.1-2.1
	l0.4-0.4l1.7,1.7V413 M521,410.9l-1-1l0.4-0.4l0.6,0.6V410.9"/>
<path class="st6" d="M142,477H98.2l0,0l0,0l0,0l0-0.1h21.8v-19.5l-1.1,0c-8.8-0.3-16-3.4-20.9-8.4c-5-5.1-7.8-12.1-7.8-20.4h-1.1
	l0,0h1.1v-8.9l0-0.1l0.1,0l0,0.1v8.9c0,8.3,2.9,15.5,8.1,20.6c5.2,5.1,12.7,8.1,21.6,8.1c0,0,0,0,0,0c0,0,0,0,0,0
	c9,0,16.4-3,21.6-8.1c5.2-5.1,8.1-12.3,8.1-20.6v-8.9l0-0.1l0.1,0l0,0.1v8.9c0,8.3-2.8,15.3-7.8,20.4c-5,5.1-12.1,8.2-20.9,8.4
	l-1.1,0v19.5H142l0,0L142,477L142,477L142,477L142,477 M120.1,441.4c-4.3,0-7.6-1.6-10-4.3c-2.4-2.7-3.7-6.4-3.7-10.8v-32.8
	c0-4.3,1.4-8.1,3.7-10.8c2.4-2.7,5.7-4.3,10-4.3c4.3,0,7.6,1.6,10,4.3c2.4,2.7,3.7,6.5,3.7,10.8v32.8c0,4.3-1.4,8.1-3.7,10.8
	C127.8,439.8,124.4,441.4,120.1,441.4L120.1,441.4"/>
<path class="st6" d="M142,479.3H98.2c-0.6,0-1.2-0.3-1.6-0.7c-0.4-0.4-0.7-1-0.7-1.6c0-1.3,1-2.4,2.3-2.4h19.5v-15
	c-8.8-0.5-16.2-3.8-21.4-9.1c-5.4-5.5-8.4-13.2-8.4-21.9h1.1h1.1c0,8.3,2.8,15.3,7.8,20.4c5,5.1,12.1,8.2,20.9,8.4l1.1,0v19.5H98.2
	l0,0.1l0,0l0,0l0,0H142v0l0,0l0,0l0-0.1l0,0h-21.8v-19.5l1.1,0c8.8-0.3,16-3.4,20.9-8.4c5-5.1,7.8-12.1,7.8-20.4v-8.9l0-0.1l-0.1,0
	l0,0.1v8.9c0,8.3-2.9,15.5-8.1,20.6c-5.2,5.1-12.7,8.1-21.6,8.1c0,0,0,0,0,0c0,0,0,0,0,0c-9,0-16.4-3-21.6-8.1
	c-5.2-5.1-8.1-12.3-8.1-20.6v-8.9l0-0.1l-0.1,0l0,0.1v8.9h-1.1h-1.1v-8.9c0-1.3,1-2.4,2.3-2.4c0,0,0,0,0,0c0.6,0,1.2,0.3,1.7,0.7
	c0.4,0.4,0.7,1,0.7,1.7v8.9c0,7.7,2.7,14.3,7.4,19c4.8,4.6,11.6,7.4,20.1,7.4c8.5,0,15.3-2.8,20.1-7.4c4.7-4.7,7.4-11.2,7.4-19v-8.9
	c0-1.3,1-2.4,2.3-2.4c0,0,0,0,0,0c0.6,0,1.2,0.3,1.7,0.7c0.4,0.4,0.7,1,0.7,1.7v8.9c0,8.8-3,16.4-8.4,21.9
	c-5.2,5.3-12.6,8.6-21.4,9.1v15H142c1.3,0,2.3,1.1,2.3,2.4c0,0.6-0.3,1.2-0.7,1.6C143.2,479,142.7,479.3,142,479.3 M120.2,443.7
	C120.2,443.7,120.1,443.7,120.2,443.7L120.2,443.7C120.1,443.7,120.1,443.7,120.2,443.7c-4.9,0-8.9-1.9-11.7-5.1
	c-2.8-3.1-4.3-7.5-4.3-12.3v-32.8c0-4.8,1.5-9.2,4.3-12.3c2.8-3.2,6.8-5.1,11.7-5.1c0,0,0,0,0,0c0,0,0,0,0,0c4.8,0,8.9,1.9,11.7,5.1
	c2.8,3.2,4.3,7.5,4.3,12.3v32.8c0,4.8-1.5,9.1-4.3,12.3C129.1,441.7,125,443.7,120.2,443.7 M120.1,378.4c-4.3,0-7.6,1.6-10,4.3
	c-2.4,2.7-3.7,6.5-3.7,10.8v32.8c0,4.3,1.4,8.1,3.7,10.8c2.4,2.7,5.7,4.3,10,4.3l0,0c4.3,0,7.6-1.6,10-4.3c2.4-2.7,3.7-6.4,3.7-10.8
	v-32.8c0-4.3-1.4-8.1-3.7-10.8C127.7,380.1,124.4,378.4,120.1,378.4"/>
<path class="st6" d="M314.9,429.1h-0.6v-3h0.6V429.1 M313.4,429.1h-0.6v-3h0.6V429.1 M311.9,429.1h-0.6v-3h0.6V429.1 M310.4,429.1
	h-0.6v-3h0.6V429.1 M308.9,429.1h-0.6v-3h0.6V429.1 M307.4,429.1h-0.6v-3h0.6V429.1 M305.9,429.1h-0.6v-3h0.6V429.1 M304.4,429.1
	h-0.6v-3h0.6V429.1 M302.9,429.1h-0.6v-3h0.6V429.1 M301.4,429.1h-0.6v-3h0.6V429.1 M299.9,429.1h-0.6v-3h0.6V429.1 M298.4,429.1
	h-0.6v-3h0.6V429.1 M296.8,429.1h-0.6v-3h0.6V429.1 M295.3,429.1h-0.6v-3h0.6V429.1 M293.8,429.1h-0.6v-3h0.6V429.1 M292.3,429.1
	h-0.6v-3h0.6V429.1 M290.8,429.1h-0.6v-3h0.6V429.1 M289.3,429.1h-0.6v-3h0.6V429.1 M287.8,429.1h-0.6v-3h0.6V429.1 M286.3,429.1
	h-0.6v-3h0.6V429.1 M284.8,429.1h-0.6v-3h0.6V429.1 M283.3,429.1h-0.6v-3h0.6V429.1 M281.8,429.1h-0.6v-3h0.6V429.1 M280.3,429.1
	h-0.6v-3h0.6V429.1 M278.7,429.1h-0.6v-3h0.6V429.1 M277.2,429.1h-0.6v-3h0.6V429.1 M275.7,429.1h-0.6v-3h0.6V429.1 M274.2,429.1
	h-0.6v-3h0.6V429.1 M272.7,429.1h-0.6v-3h0.6V429.1 M271.2,429.1h-0.6v-3h0.6V429.1 M269.7,429.1h-0.6v-3h0.6V429.1 M268.2,429.1
	h-0.6v-3h0.6V429.1 M266.7,429.1h-0.6v-3h0.6V429.1 M265.2,429.1h-0.6v-3h0.6V429.1 M263.7,429.1h-0.6v-3h0.6V429.1 M262.2,429.1
	h-0.6v-3h0.6V429.1 M260.6,429.1h-0.6v-3h0.6V429.1 M259.1,429.1h-0.6v-3h0.6V429.1 M257.6,429.1h-0.6v-3h0.6V429.1 M256.1,429.1
	h-0.6v-3h0.6V429.1 M254.6,429.1h-0.6v-3h0.6V429.1 M253.1,429.1h-0.6v-3h0.6V429.1 M251.6,429.1H251v-3h0.6V429.1 M250.1,429.1
	h-0.6v-3h0.6V429.1 M248.6,429.1H248v-3h0.6V429.1 M247.1,429.1h-0.6v-3h0.6V429.1 M245.6,429.1H245v-3h0.6V429.1 M244.1,429.1h-0.6
	v-3h0.6V429.1 M242.5,429.1H242v-3h0.6V429.1 M241,429.1h-0.6v-3h0.6V429.1 M239.5,429.1H239v-3h0.6V429.1 M238,429.1h-0.6v-3h0.6
	V429.1 M236.5,429.1H236v-3h0.6V429.1 M235,429.1h-0.6v-3h0.6V429.1 M233.5,429.1h-0.6v-3h0.6V429.1 M232,429.1h-0.6v-3h0.6V429.1
	 M230.5,429.1h-0.6v-3h0.6V429.1 M229,429.1h-0.6v-3h0.6V429.1 M227.5,429.1h-0.6v-3h0.6V429.1 M226,429.1h-0.6v-3h0.6V429.1
	 M224.4,429.1h-0.6v-3h0.6V429.1 M222.9,429.1h-0.6v-3h0.6V429.1 M221.4,429.1h-0.6v-3h0.6V429.1 M219.9,429.1h-0.6v-3h0.6V429.1
	 M218.4,429.1h-0.6v-3h0.6V429.1 M216.9,429.1h-0.6v-3h0.6V429.1 M215.4,429.1h-0.6v-3h0.6V429.1"/>
<path class="st6" d="M315.5,432.6v-10.1l13.9,5.1L315.5,432.6 M320.4,426.1v3h0.6v-3H320.4 M318.9,426.1v3h0.6v-3H318.9
	 M317.4,426.1v3h0.6v-3H317.4 M315.9,426.1v3h0.6v-3H315.9"/>
<path class="st6" d="M321,429.1h-0.6v-3h0.6V429.1 M319.5,429.1h-0.6v-3h0.6V429.1 M318,429.1h-0.6v-3h0.6V429.1 M316.5,429.1h-0.6
	v-3h0.6V429.1"/>
<rect x="218.9" y="406.9" class="st5" width="99.4" height="11.4"/>
<text transform="matrix(1 0 0 1 218.1094 415.8623)" class="st6 st0 st1">alsa_input.pc</text>
<g>
	<defs>
		<polyline id="SVGID_00000128474755060207413900000006493288317498419610_" points="318.3,418.3 218.9,418.3 218.9,406.9 
			318.3,406.9 318.3,418.3 		"/>
	</defs>
	<clipPath id="SVGID_00000006670271992175058750000000143522768250639533_">
		<use xlink:href="#SVGID_00000128474755060207413900000006493288317498419610_"  style="overflow:visible;"/>
	</clipPath>
	<g style="clip-path:url(#SVGID_00000006670271992175058750000000143522768250639533_);">
		<text transform="matrix(1 0 0 1 311.7188 415.8623)" class="st6 st0 st1">i</text>
	</g>
</g>
<rect x="372.9" y="416.6" class="st5" width="88.8" height="21.1"/>
<g>
	<defs>
		<polyline id="SVGID_00000076591556805032559880000017662569820297919914_" points="461.7,437.7 372.9,437.7 372.9,416.6 
			461.7,416.6 461.7,437.7 		"/>
	</defs>
	<clipPath id="SVGID_00000025417564031159862130000012460479118920730251_">
		<use xlink:href="#SVGID_00000076591556805032559880000017662569820297919914_"  style="overflow:visible;"/>
	</clipPath>
	<g style="clip-path:url(#SVGID_00000025417564031159862130000012460479118920730251_);">
		<text transform="matrix(1 0 0 1 371.9375 437.3232)" class="st6 st2 st3">aud</text>
	</g>
</g>
<text transform="matrix(1 0 0 1 422.4297 437.3232)" class="st6 st2 st3">i</text>
<g>
	<defs>
		<polyline id="SVGID_00000139280272600075535370000007658298525791889280_" points="461.7,437.7 372.9,437.7 372.9,416.6 
			461.7,416.6 461.7,437.7 		"/>
	</defs>
	<clipPath id="SVGID_00000137120538195480609570000004427350364640840839_">
		<use xlink:href="#SVGID_00000139280272600075535370000007658298525791889280_"  style="overflow:visible;"/>
	</clipPath>
	<g style="clip-path:url(#SVGID_00000137120538195480609570000004427350364640840839_);">
		<text transform="matrix(1 0 0 1 429.4219 437.3232)" class="st6 st2 st3">o0</text>
	</g>
</g>
<path class="st6" d="M487.2,448.9H347.5v-40.8v-1h139.7V448.9 M349.5,409.1v37.8h135.7v-37.8H349.5 M348.5,408.1v1V408.1"/>
<path class="st6" d="M521,268.4h-0.5v-3h0.5V268.4 M519.5,268.4H519v-3h0.6V268.4 M518,268.4h-0.6v-3h0.6V268.4 M516.5,268.4H516v-3
	h0.6V268.4 M515,268.4h-0.6v-3h0.6V268.4 M513.5,268.4h-0.6v-3h0.6V268.4 M512,268.4h-0.6v-3h0.6V268.4 M510.5,268.4h-0.6v-3h0.6
	V268.4 M509,268.4h-0.6v-3h0.6V268.4 M507.4,268.4h-0.6v-3h0.6V268.4 M505.9,268.4h-0.6v-3h0.6V268.4 M504.4,268.4h-0.6v-3h0.6
	V268.4 M502.9,268.4h-0.6v-3h0.6V268.4 M501.4,268.4h-0.6v-3h0.6V268.4"/>
</svg>
